<svg width="24" height="24" viewBox="0 0 24 24" fill="none" xmlns="http://www.w3.org/2000/svg">
<path d="M11.995 2C14.7114 2 15.049 2.01111 16.1152 2.06108C17.1813 2.10995 17.9076 2.27764 18.5439 2.52418C19.2103 2.77517 19.8155 3.1683 20.3142 3.67916C20.825 4.17669 21.2248 4.78083 21.4692 5.44828C21.7135 6.08351 21.8912 6.80982 21.9356 7.87373C21.9878 8.93986 22 9.27303 22 11.9939C22 14.7148 21.9889 15.0479 21.94 16.1141C21.8912 17.1691 21.7224 17.902 21.4769 18.5351C21.2248 19.2014 20.8328 19.8011 20.3219 20.3008C19.8222 20.8095 19.2203 21.2037 18.5539 21.4558C17.9187 21.7024 17.1913 21.8701 16.1274 21.9189C15.0612 21.9678 14.7214 21.98 12.0072 21.98C9.29302 21.98 8.95319 21.9689 7.88706 21.9189C6.82092 21.8723 6.09573 21.7046 5.45938 21.458C4.79305 21.2059 4.18668 20.8139 3.68804 20.3031C3.17719 19.8033 2.78405 19.2003 2.53307 18.534C2.28874 17.8976 2.11883 17.1713 2.06996 16.1074C2.01111 15.049 2 14.7103 2 11.995C2 9.27969 2.01333 8.94097 2.06108 7.87484C2.10883 6.80871 2.27764 6.08351 2.52418 5.44716C2.77628 4.78083 3.1683 4.17669 3.67916 3.67805C4.17891 3.1783 4.78194 2.7785 5.44939 2.53418C6.08462 2.28763 6.81093 2.11994 7.87484 2.07108C8.94097 2.01111 9.28191 2 11.995 2ZM17.3312 4.33217C16.9025 4.33217 16.5072 4.56205 16.2929 4.93187C16.0785 5.3039 16.0785 5.76145 16.2929 6.13127C16.5072 6.5033 16.9037 6.73097 17.3312 6.73097C17.9942 6.73097 18.5306 6.19457 18.5306 5.53157C18.5306 4.86968 17.9942 4.33217 17.3312 4.33217ZM11.995 6.86423C9.16086 6.86423 6.86423 9.16308 6.86423 11.9983C6.86423 14.8347 9.16308 17.1324 11.9972 17.1313C14.8325 17.1313 17.1302 14.8325 17.128 11.9972C17.128 9.16197 14.8291 6.86423 11.995 6.86423ZM11.995 8.66333C13.2022 8.64112 14.3272 9.2697 14.9358 10.3103C15.5466 11.3509 15.5466 12.6391 14.9358 13.6797C14.3249 14.7203 13.2033 15.35 11.9961 15.3267C10.1859 15.2911 8.73108 13.8096 8.73108 11.995C8.73108 10.1804 10.1848 8.69887 11.995 8.66333Z" fill="black"/>
</svg>
