<svg width="24" height="24" viewBox="0 0 24 24" fill="none" xmlns="http://www.w3.org/2000/svg">
<path d="M21.3202 16.7621C20.6665 16.2392 19.9475 15.7817 19.2939 15.2588C17.9212 14.2783 16.6793 14.213 15.6335 15.7817C15.0452 16.6314 14.2609 16.6968 13.4111 16.3046C11.1234 15.2588 9.29319 13.6247 8.24737 11.2716C7.78982 10.2258 7.78982 9.31066 8.90101 8.52629C9.48929 8.13411 10.0776 7.67656 10.0122 6.82683C9.94683 5.71564 7.26691 1.9899 6.22109 1.59771C5.76354 1.40162 5.37136 1.46698 4.91381 1.59771C2.42998 2.44744 1.38416 4.47373 2.36461 6.89219C5.24063 14.213 10.4697 19.3113 17.5944 22.3834C17.9866 22.5795 18.4441 22.6449 18.7056 22.7103C20.3397 22.7103 22.2353 21.1415 22.8235 19.5728C23.3464 18.0694 22.2353 17.4812 21.3202 16.7621Z" fill="black"/>
<path d="M13.2803 2.12062C18.5095 2.90499 20.9279 5.38882 21.5816 10.6833C21.6469 11.1408 21.4508 11.9252 22.1698 11.9252C22.8889 11.9252 22.6928 11.2062 22.7581 10.7487C22.8235 5.781 18.5095 1.20553 13.4764 1.00943C13.0843 1.0748 12.2999 0.747979 12.2345 1.59771C12.1692 2.12062 12.8228 2.05526 13.2803 2.12062Z" fill="black"/>
<path d="M14.3262 3.55863C13.8033 3.49327 13.1496 3.23181 13.0189 3.95082C12.8882 4.66982 13.6072 4.60446 14.1301 4.73518C17.3329 5.45419 18.5095 6.63074 19.0324 9.83357C19.0977 10.2911 18.967 11.0101 19.7514 10.8794C20.3397 10.814 20.1436 10.1604 20.2089 9.83357C20.2089 6.76147 17.529 3.95082 14.3262 3.55863Z" fill="black"/>
<path d="M14.5876 6.10783C14.2608 6.10783 13.934 6.17319 13.8033 6.50001C13.6072 7.02292 13.9993 7.15365 14.3915 7.21902C15.6988 7.41511 16.4178 8.19947 16.5485 9.50675C16.6139 9.83357 16.81 10.1604 17.1368 10.095C17.5944 10.0297 17.6597 9.63748 17.6597 9.17993C17.7251 7.74193 16.0256 6.04246 14.5876 6.10783Z" fill="black"/>
</svg>
