<svg width="24" height="24" viewBox="0 0 24 24" fill="none" xmlns="http://www.w3.org/2000/svg">
<path d="M23.0088 9.45168C23.0583 8.02034 22.7452 6.5997 22.0988 5.32168C21.6602 4.79728 21.0515 4.44339 20.3788 4.32168C17.5963 4.06921 14.8023 3.96573 12.0088 4.01168C9.22546 3.96364 6.44152 4.06378 3.66882 4.31168C3.12064 4.4114 2.61333 4.66853 2.20882 5.05168C1.30882 5.88168 1.20882 7.30168 1.10882 8.50168C0.963728 10.6592 0.963728 12.8241 1.10882 14.9817C1.13775 15.6571 1.23831 16.3275 1.40882 16.9817C1.52939 17.4867 1.77334 17.954 2.11882 18.3417C2.52608 18.7451 3.0452 19.0169 3.60882 19.1217C5.76473 19.3878 7.93703 19.4981 10.1088 19.4517C13.6088 19.5017 16.6788 19.4517 20.3088 19.1717C20.8863 19.0733 21.42 18.8012 21.8388 18.3917C22.1188 18.1116 22.3279 17.7688 22.4488 17.3917C22.8064 16.2943 22.9821 15.1458 22.9688 13.9917C23.0088 13.4317 23.0088 10.0517 23.0088 9.45168ZM9.74882 14.5917V8.40168L15.6688 11.5117C14.0088 12.4317 11.8188 13.4717 9.74882 14.5917Z" fill="black"/>
</svg>
