<svg width="16" height="16" viewBox="0 0 16 16" fill="none" xmlns="http://www.w3.org/2000/svg">
<path fill-rule="evenodd" clip-rule="evenodd" d="M0 8C0 12.4183 3.58172 16 8 16C12.4183 16 16 12.4183 16 8C16 3.58172 12.4183 0 8 0C3.58172 0 0 3.58172 0 8ZM8.59977 10.5134L7.59567 9.49552L4.09578 13C3.82321 12.7741 3.62553 12.5997 3.50274 12.4769C3.37994 12.3541 3.21237 12.1631 3 11.904L6.50729 8.39217L5.51407 7.38528C5.21353 7.0806 5.21684 6.58994 5.52146 6.28935C5.61908 6.19303 5.7405 6.12434 5.87333 6.0903L10.0329 5.02443C10.4474 4.91821 10.8695 5.1682 10.9758 5.58281C11.0081 5.70896 11.0081 5.84123 10.9758 5.96739L9.90196 10.1614C9.7958 10.576 9.37368 10.8261 8.95913 10.7199C8.82282 10.685 8.69859 10.6136 8.59977 10.5134Z" fill="white"/>
</svg>
