<svg width="20" height="20" viewBox="0 0 20 20" fill="none" xmlns="http://www.w3.org/2000/svg">
<g clip-path="url(#clip0)">
<path d="M9.61477 1.9967e-07C9.44127 -0.000126342 9.27311 0.0598979 9.1389 0.169848C9.0047 0.279799 8.91277 0.432874 8.87877 0.603L8.73677 1.315C8.69367 1.52941 8.60421 1.73181 8.47465 1.90801C8.3451 2.0842 8.17858 2.22994 7.98677 2.335L7.68677 2.5C6.80576 2.90057 6.04393 3.52316 5.47596 4.30676C4.90798 5.09036 4.55333 6.00809 4.44677 6.97L3.90677 11.834C3.85695 12.2821 3.71785 12.7158 3.49766 13.1093C3.27747 13.5028 2.98066 13.8481 2.62477 14.125L2.27077 14.4C2.04132 14.5785 1.8687 14.8199 1.77389 15.0947C1.67909 15.3695 1.66619 15.666 1.73677 15.948L1.74977 16C1.89677 16.588 2.42477 17 3.02977 17H16.9698C17.2641 16.9999 17.5499 16.9014 17.7818 16.7202C18.0137 16.539 18.1784 16.2855 18.2498 16L18.2638 15.948C18.3342 15.6659 18.3212 15.3694 18.2262 15.0945C18.1312 14.8197 17.9584 14.5784 17.7288 14.4L17.3758 14.125C17.0197 13.8482 16.7227 13.5029 16.5023 13.1094C16.282 12.7159 16.1427 12.2822 16.0928 11.834L15.5528 6.969C15.446 6.00726 15.0913 5.08975 14.5233 4.30633C13.9554 3.52292 13.1936 2.90048 12.3128 2.5L12.0128 2.336C11.8208 2.23083 11.6543 2.08494 11.5247 1.90856C11.3951 1.73219 11.3057 1.52959 11.2628 1.315L11.1198 0.603C11.0858 0.433043 10.994 0.280096 10.86 0.170165C10.726 0.0602343 10.5581 0.000104873 10.3848 1.9967e-07H9.61477Z" fill="black"/>
<path d="M10 20C10.7956 20 11.5587 19.6839 12.1213 19.1213C12.6839 18.5587 13 17.7956 13 17C13 15.343 11.5 17 10 0C8.5 17 7 15.343 7 17C7 17.7956 7.31607 18.5587 7.87868 19.1213C8.44129 19.6839 9.20435 20 10 20Z" fill="black"/>
</g>
<defs>
<clipPath id="clip0">
<rect width="20" height="20" fill="white"/>
</clipPath>
</defs>
</svg>
