<svg width="16" height="15" viewBox="0 0 16 15" fill="none" xmlns="http://www.w3.org/2000/svg">
<circle cx="13.5" cy="2.5" r="2.5" fill="#ffffff"/>
<path fill-rule="evenodd" clip-rule="evenodd" d="M8.12008 1.35159C7.46091 1.12362 6.74638 1 6 1C2.686 1 0 3.438 0 6.625C0 8.085 0.564 9.388 1.493 10.371C1.443 10.998 1.157 11.646 0.633 12.314C0.609754 12.3434 0.595244 12.3788 0.591128 12.416C0.587011 12.4533 0.593453 12.491 0.609718 12.5248C0.625984 12.5585 0.651417 12.5871 0.683117 12.6071C0.714817 12.6271 0.751507 12.6378 0.789 12.638H0.79C2.064 12.65 3.076 12.398 3.826 11.88C4.5 12.12 5.233 12.25 6 12.25C8.90838 12.25 11.3331 10.3723 11.8831 7.75848C11.2261 7.5567 10.6215 7.23518 10.0948 6.81938C9.98797 8.80388 8.25198 10.35 6 10.35C5.61 10.35 5.377 10.35 4.88 10.27C4.257 10.17 3.503 10.488 2.617 11.222C2.945 10.199 2.905 9.366 2.497 8.725C2.0998 8.09715 1.89249 7.3679 1.9 6.625C1.9 4.548 3.675 2.9 6 2.9C6.76463 2.9 7.46978 3.07825 8.07186 3.39138C8.02458 3.10125 8 2.8035 8 2.5C8 2.10616 8.0414 1.72198 8.12008 1.35159ZM15.8151 7.4905C15.3407 7.71092 14.8297 7.86569 14.2936 7.94317C14.2669 8.56245 14.1452 9.20891 13.893 9.843C13.799 10.08 13.697 10.283 13.601 10.473L13.6006 10.4738C13.2938 11.0834 13.0421 11.5835 13.275 12.733C12.8523 12.4678 12.3659 12.3217 11.867 12.31C11.371 12.288 10.93 12.505 10.413 12.76C9.805 13.059 9.093 13.409 8.066 13.484C8.83101 13.8287 9.66093 14.0056 10.5 14.003C11.202 14.003 11.875 13.883 12.492 13.663C13.173 14.133 14.09 14.365 15.242 14.358C15.2792 14.3577 15.3156 14.3471 15.3471 14.3272C15.3786 14.3074 15.404 14.2791 15.4203 14.2457C15.4366 14.2122 15.4433 14.1748 15.4395 14.1378C15.4357 14.1008 15.4217 14.0655 15.399 14.036C14.932 13.432 14.677 12.847 14.632 12.28C15.5139 11.3546 16.004 10.1243 16 8.846C16 8.37412 15.9357 7.9201 15.8151 7.4905Z" fill="#ffffff"/>
</svg>
