<svg width="16" height="16" viewBox="0 0 16 16" fill="none" xmlns="http://www.w3.org/2000/svg">
<path d="M14.7064 14.293C14.8886 14.4816 14.9894 14.7342 14.9871 14.9964C14.9848 15.2586 14.8797 15.5094 14.6942 15.6948C14.5088 15.8802 14.258 15.9854 13.9958 15.9877C13.7336 15.99 13.481 15.8892 13.2924 15.707C12.1674 14.582 10.4214 14 7.99943 14C5.57743 14 3.83143 14.582 2.70643 15.707C2.51783 15.8892 2.26523 15.99 2.00303 15.9877C1.74083 15.9854 1.49002 15.8802 1.30461 15.6948C1.1192 15.5094 1.01403 15.2586 1.01176 14.9964C1.00948 14.7342 1.11027 14.4816 1.29243 14.293C2.83343 12.75 5.08743 12 7.99943 12C10.9114 12 13.1644 12.751 14.7064 14.293ZM8.00043 10.8C5.37043 10.8 3.49943 8.108 3.49943 4.97C3.49943 2 5.09543 0 8.00043 0C10.9054 0 12.4994 2 12.4994 4.97C12.4994 8.108 10.6294 10.8 8.00043 10.8ZM8.00043 8.8C9.30743 8.8 10.4994 7.204 10.4994 4.97C10.4994 2.961 9.65943 2 8.00043 2C6.34043 2 5.49943 2.962 5.49943 4.97C5.49943 7.203 6.69343 8.8 8.00043 8.8Z" fill="white"/>
</svg>
