<svg width="366" height="208" viewBox="0 0 366 208" fill="none" xmlns="http://www.w3.org/2000/svg">
<path d="M94.1554 33.9895C104.713 16.5166 127.081 11.0714 147.842 9.46077C168.604 7.85008 187.657 10.2169 204.613 20.475C221.568 30.7332 236.328 48.9845 242.919 71.2132C249.51 93.4419 248.068 119.502 238.952 137.667C229.835 155.75 213.14 165.815 197.955 173.21C182.771 180.606 169.095 185.311 154.227 184.984C139.36 184.657 123.203 179.266 111.691 166.012C100.147 152.669 93.2269 131.485 89.0284 106.165C84.906 80.8455 83.6258 51.418 94.1554 33.9895V33.9895Z" fill="#ECF2F9"/>
<path d="M131.321 75.0895C130.338 75.0895 129.033 74.3377 127.319 72.7837C126.368 71.919 125.518 71.0008 125.031 70.4749C124.413 70.8671 123.346 71.5151 122.19 72.0975C119.489 73.4555 117.813 73.6873 116.922 72.8315C116.03 71.9757 116.194 70.2906 117.436 67.5331C117.968 66.3446 118.571 65.257 118.922 64.6241C118.357 64.1606 117.409 63.3464 116.5 62.4253C114.372 60.2739 113.632 58.7585 114.167 57.6502C114.702 56.5418 116.351 56.1793 119.352 56.5151C120.636 56.6577 121.857 56.8954 122.573 57.047C122.841 56.3695 123.316 55.2195 123.908 54.0755C125.286 51.4013 126.496 50.2127 127.711 50.3761C128.926 50.5395 129.791 51.9926 130.385 54.9551C130.647 56.2209 130.798 57.46 130.873 58.185C131.604 58.2296 132.849 58.328 134.141 58.536C137.133 59.0173 138.625 59.8104 138.839 61.0257C139.053 62.241 137.933 63.5009 135.312 64.9955C134.192 65.6344 133.066 66.1603 132.397 66.4545C132.581 67.1647 132.872 68.38 133.072 69.6607C133.532 72.6559 133.229 74.3169 132.121 74.8904C131.875 75.0235 131.6 75.0921 131.321 75.0895V75.0895ZM125.162 68.7603C125.269 68.7603 125.375 68.7834 125.472 68.828C125.569 68.8727 125.656 68.9377 125.726 69.0189C128.029 71.7139 130.798 73.9277 131.425 73.577C132.115 73.2234 131.803 69.6577 130.807 66.2317C130.757 66.0561 130.773 65.8681 130.852 65.7036C130.932 65.5391 131.069 65.4097 131.238 65.3402C134.587 63.9674 137.517 62.033 137.386 61.2842C137.255 60.5354 133.758 59.7361 130.192 59.6351C130.009 59.6297 129.834 59.5565 129.702 59.4298C129.57 59.303 129.489 59.1317 129.476 58.949C129.209 55.3833 128.264 51.9421 127.533 51.844H127.5C126.745 51.844 124.945 54.8719 123.753 58.1672C123.691 58.3395 123.568 58.4828 123.406 58.569C123.245 58.6552 123.057 58.6783 122.88 58.6337C119.421 57.7928 115.846 57.6294 115.522 58.295C115.198 58.9606 117.552 61.6705 120.363 63.8664C120.506 63.9791 120.604 64.1406 120.636 64.3203C120.668 64.5 120.633 64.6853 120.538 64.841C118.636 67.9343 117.403 71.2299 117.953 71.7588C118.503 72.2877 121.798 70.8671 124.749 68.8881C124.87 68.8058 125.014 68.7612 125.162 68.7603V68.7603Z" fill="#00E6C5"/>
<path d="M257.979 45.7556C256.966 46.448 255.095 46.5928 252.237 46.2006C250.649 45.9802 249.129 45.6337 248.257 45.4355C247.897 46.2743 247.255 47.6921 246.476 49.1052C244.653 52.404 243.091 53.8223 241.572 53.5693C240.052 53.3162 239.034 51.4672 238.37 47.7553C238.081 46.1578 237.936 44.614 237.851 43.7159C236.944 43.6363 235.396 43.4658 233.811 43.1581C230.108 42.4421 228.279 41.4036 228.05 39.8865C227.82 38.3695 229.261 36.8355 232.586 35.0682C234.007 34.3113 235.431 33.6961 236.275 33.3479C236.073 32.4625 235.753 30.9445 235.556 29.351C235.092 25.6285 235.5 23.554 236.865 22.8666C238.231 22.1792 240.144 23.0657 242.841 25.6958C244.001 26.8143 245.029 27.9827 245.616 28.6764C246.4 28.2077 247.75 27.4324 249.227 26.7365C252.645 25.1253 254.738 24.8913 255.814 25.9913C256.889 27.0912 256.624 29.1763 254.979 32.5594C254.276 34.0054 253.487 35.3394 253.006 36.1128C253.696 36.7139 254.851 37.7595 255.958 38.9372C258.54 41.695 259.398 43.6176 258.661 44.988C258.502 45.2977 258.268 45.5618 257.979 45.7556V45.7556ZM247.184 43.5792C247.295 43.5038 247.42 43.453 247.552 43.4303C247.683 43.4077 247.818 43.4136 247.947 43.4478C252.214 44.5999 256.623 44.9282 257.021 44.1261C257.481 43.2769 254.65 39.8273 251.214 37.0026C251.038 36.8575 250.922 36.6528 250.888 36.4275C250.854 36.2023 250.905 35.9724 251.03 35.782C253.509 32.0118 255.162 27.9587 254.5 27.2802C253.839 26.6017 249.677 28.2413 245.937 30.6476C245.745 30.771 245.513 30.8186 245.288 30.7813C245.063 30.744 244.859 30.6245 244.717 30.4457C241.932 26.9648 238.537 24.0889 237.715 24.5026L237.682 24.5256C236.905 25.057 237.184 29.4404 238.278 33.6702C238.335 33.891 238.309 34.1254 238.204 34.3278C238.098 34.5302 237.921 34.6861 237.707 34.7653C233.556 36.3349 229.762 38.6832 229.898 39.5961C230.033 40.5091 234.362 41.6409 238.801 41.9216C239.028 41.9364 239.242 42.0342 239.402 42.1964C239.561 42.3585 239.656 42.5737 239.667 42.8011C239.888 47.3229 240.939 51.5823 241.877 51.7396C242.815 51.8968 245.206 48.1151 246.849 44.0015C246.917 43.831 247.033 43.6839 247.184 43.5792V43.5792Z" fill="#00E6C5"/>
<path d="M108.397 103.165C108.216 103.217 108.021 103.199 107.853 103.113L86.5675 92.1428C86.3961 92.0514 86.2675 91.8962 86.2096 91.7108C86.1516 91.5254 86.1689 91.3246 86.2578 91.1519C86.3467 90.9792 86.4999 90.8483 86.6844 90.7876C86.869 90.727 87.0699 90.7413 87.244 90.8276L108.532 101.797C108.664 101.865 108.772 101.97 108.843 102.101C108.914 102.231 108.944 102.379 108.93 102.527C108.915 102.675 108.857 102.814 108.762 102.928C108.667 103.042 108.54 103.125 108.397 103.165ZM97.3962 118.6C97.3035 118.629 97.206 118.639 97.1093 118.63C97.0126 118.622 96.9185 118.594 96.8325 118.549C96.7465 118.504 96.6702 118.442 96.608 118.368C96.5458 118.293 96.4989 118.207 96.47 118.114C96.441 118.022 96.4306 117.924 96.4394 117.827C96.4481 117.731 96.4758 117.637 96.5209 117.551C96.566 117.465 96.6276 117.388 96.7021 117.326C96.7767 117.264 96.8628 117.217 96.9555 117.188L114.168 111.368C114.354 111.306 114.557 111.321 114.733 111.408C114.908 111.495 115.042 111.648 115.105 111.834C115.152 111.973 115.157 112.122 115.119 112.263C115.08 112.405 115.001 112.531 114.891 112.628C114.817 112.691 114.732 112.74 114.64 112.771L97.4283 118.594L97.3962 118.6ZM239.874 82.0099C239.711 82.0566 239.537 82.0459 239.381 81.9794C239.224 81.913 239.096 81.7949 239.016 81.6449C238.937 81.4949 238.912 81.3221 238.945 81.1557C238.978 80.9893 239.067 80.8392 239.198 80.7307L265.879 58.7978C265.992 58.7042 266.13 58.6462 266.276 58.6311C266.422 58.616 266.569 58.6445 266.698 58.713C266.828 58.7815 266.934 58.8869 267.003 59.0159C267.073 59.1449 267.103 59.2916 267.089 59.4375C267.07 59.6329 266.975 59.813 266.824 59.9382L240.144 81.8675C240.065 81.9333 239.973 81.9819 239.874 82.0099ZM245.643 87.0038C245.55 87.0322 245.453 87.0421 245.356 87.0328C245.259 87.0235 245.166 86.9952 245.08 86.9496C244.994 86.904 244.918 86.842 244.856 86.767C244.795 86.6921 244.748 86.6057 244.72 86.5128C244.663 86.3253 244.682 86.1227 244.775 85.9497C244.867 85.7766 245.024 85.6471 245.211 85.5896L262.471 79.947C262.564 79.9167 262.661 79.9049 262.758 79.9122C262.855 79.9196 262.949 79.946 263.036 79.9899C263.123 80.0338 263.2 80.0943 263.263 80.1681C263.326 80.2418 263.374 80.3273 263.405 80.4197C263.435 80.512 263.447 80.6094 263.44 80.7063C263.432 80.8032 263.406 80.8977 263.362 80.9844C263.318 81.0711 263.257 81.1483 263.184 81.2115C263.11 81.2748 263.024 81.3229 262.932 81.353L245.669 86.9964L245.643 87.0038V87.0038Z" fill="#00E6C5"/>
<path d="M167.434 92.138C167.767 90.8004 168.968 89.8613 170.346 89.8613H184.095C186.066 89.8613 187.502 91.7298 186.994 93.6343L168.444 163.198C168.169 164.228 167.368 165.035 166.34 165.318L152.943 169.002C150.731 169.61 148.683 167.612 149.236 165.386L167.434 92.138Z" fill="#B7463C"/>
<path d="M237.657 169.378L210.058 87.4996C209.444 85.679 207.623 84.5518 205.719 84.815L165.607 90.3625C163.563 90.6452 162.069 92.4373 162.159 94.4993L166.279 188.812C166.392 191.39 168.881 193.188 171.364 192.486L181.424 189.641C183.223 189.133 184.429 187.446 184.33 185.579L180.183 107.801C180.078 105.824 181.435 104.067 183.374 103.669L195.903 101.099C197.938 100.682 199.953 101.891 200.543 103.882L221.378 174.239C222 176.338 224.195 177.548 226.302 176.952L234.955 174.505C237.156 173.883 238.388 171.545 237.657 169.378Z" fill="#E26257"/>
<path d="M231 149.361L209 84.3613L162 90.8613L165.5 169.361L165.996 169.554C171.65 171.753 177.516 173.364 183.5 174.361L180 104.361L199.5 100.361L218 162.361L220.358 161.182C225.27 158.726 229.072 154.504 231 149.361Z" fill="#B7463C"/>
<ellipse cx="186.06" cy="111.031" rx="52" ry="57.5" transform="rotate(-8.6541 186.06 111.031)" fill="#E26257"/>
<ellipse cx="189.001" cy="108.86" rx="39.4692" ry="43.6439" transform="rotate(-8.6541 189.001 108.86)" fill="white"/>
<ellipse cx="193.002" cy="107.86" rx="21.3798" ry="23.6411" transform="rotate(-8.6541 193.002 107.86)" fill="#E26257"/>
<path d="M196.942 103.54L258.751 95.4196C261.121 95.1082 263.312 96.7307 263.705 99.0886C264.132 101.655 262.27 104.037 259.676 104.24L197.528 109.123C195.895 109.252 194.5 107.962 194.5 106.324C194.5 104.915 195.545 103.724 196.942 103.54Z" fill="#FFCC00"/>
<path d="M257.028 84.9032L259.531 96.1826L235.468 101.968L236.486 94.8876C237.167 90.1549 240.39 86.1776 244.879 84.5318L251.746 82.0144C254.018 81.1815 256.503 82.5409 257.028 84.9032Z" fill="#FFCC00"/>
<path d="M271.739 94.1987L262.887 98.2677L238.825 104.054L243.708 99.4621C245.528 97.7503 247.803 96.5994 250.261 96.1473L271.14 92.3066C272.298 92.0937 272.808 93.7071 271.739 94.1987Z" fill="#FFCC00"/>
<path d="M258.629 113.929L260 103.592L236 100.361L237.502 106.223C238.688 110.856 242.324 114.464 246.966 115.615L253.701 117.285C256.016 117.859 258.315 116.293 258.629 113.929Z" fill="#FFCC00"/>
<path d="M249.837 110.361C246.972 110.361 238.752 105.695 235 103.361L244.554 104.464C246.817 104.725 249.11 104.43 251.233 103.604L257 101.361L255.474 106.728C254.863 108.878 252.901 110.361 250.666 110.361H249.837Z" fill="#D99C00"/>
<circle cx="259.5" cy="99.8613" r="4.5" fill="#D99C00"/>
</svg>
