<svg width="366" height="207" viewBox="0 0 366 207" fill="none" xmlns="http://www.w3.org/2000/svg">
<path d="M114.752 46.4544C124.605 30.1901 145.479 25.1215 164.854 23.6223C184.23 22.123 202.011 24.3261 217.835 33.8747C233.658 43.4233 247.433 60.4121 253.583 81.1032C259.734 101.794 258.389 126.052 249.881 142.961C241.373 159.793 225.792 169.161 211.622 176.045C197.451 182.929 184.688 187.309 170.813 187.004C156.938 186.7 141.86 181.682 131.116 169.344C120.343 156.924 113.885 137.206 109.967 113.638C106.12 90.0692 104.925 62.6772 114.752 46.4544V46.4544Z" fill="#ECF2F9"/>
<path d="M113.099 88.3786C111.383 88.3982 109.718 87.7951 108.412 86.6812C106.342 84.9069 105.523 82.5412 106.07 79.9951C106.682 77.1473 109.028 74.5953 111.76 73.7851C114.126 73.0842 116.462 73.7259 118.325 75.5889C121.178 78.4396 121.513 82.7511 119.102 85.6166C118.443 86.4042 117.632 87.0514 116.717 87.5201C115.803 87.989 114.804 88.2699 113.78 88.346C113.561 88.3697 113.33 88.3786 113.099 88.3786ZM113.626 74.9916C113.135 74.9928 112.647 75.0655 112.177 75.2075C109.935 75.8669 108.019 77.9635 107.516 80.3085C107.088 82.2957 107.75 84.1528 109.379 85.5634C109.968 86.0599 110.651 86.4322 111.388 86.6578C112.124 86.8834 112.898 86.9578 113.664 86.8763C114.491 86.8153 115.297 86.5891 116.035 86.2113C116.773 85.8334 117.428 85.3114 117.961 84.6762C119.88 82.3963 119.582 78.9423 117.278 76.6358C116.018 75.376 114.729 74.9916 113.626 74.9916V74.9916ZM107.531 73.995C103.27 73.995 101.75 69.7456 100.612 66.5578C100.47 66.1586 100.316 65.7653 100.186 65.375C99.1362 62.545 97.7256 58.4109 96.593 55.09C95.7059 52.5262 94.9636 50.3113 94.5851 49.3059C94.5708 49.2715 94.5599 49.2359 94.5526 49.1994C94.4743 48.8947 94.3684 48.5977 94.2362 48.3123L94.1652 48.1496C93.6888 47.0172 93.4958 45.7857 93.603 44.5618C93.7102 43.338 94.1143 42.1587 94.7803 41.1264C96.6108 38.3437 99.6448 37.6399 102.51 39.3344C104.613 40.5852 105.396 42.673 106.156 44.6927C106.304 45.089 106.452 45.4823 106.612 45.8756C107.662 48.4246 110.787 57.2044 112.352 61.9003C112.491 62.3055 112.647 62.7254 112.816 63.1719C113.493 64.9728 114.262 67.0162 113.91 68.9975C113.466 71.3632 111.453 73.3415 109.016 73.8442C108.527 73.9436 108.03 73.9941 107.531 73.995V73.995ZM95.9986 48.8593C96.3919 49.9062 97.1401 52.1122 98.0036 54.6376C99.1362 57.9496 100.541 62.0718 101.582 64.8811C101.727 65.2626 101.877 65.6648 102.016 66.064C103.516 70.2602 104.879 73.1611 108.732 72.3923C110.566 72.0167 112.139 70.4731 112.467 68.7254C112.763 67.1522 112.085 65.3927 111.444 63.6983C111.272 63.2399 111.11 62.8111 110.962 62.3764C109.403 57.6982 106.298 48.9687 105.257 46.4433C105.092 46.0382 104.938 45.6301 104.784 45.222C104.083 43.359 103.421 41.5995 101.768 40.6148C98.5152 38.6927 96.5546 41.1471 96.0282 41.9455C95.4945 42.7767 95.1713 43.7254 95.0868 44.7096C95.0023 45.6938 95.159 46.6837 95.5432 47.5937L95.6083 47.7474C95.7665 48.1023 95.8931 48.4704 95.9868 48.8475L95.9986 48.8593V48.8593ZM225.264 96.7443C217.827 94.2633 198.147 98.0603 179.109 102.928C160.071 107.795 140.911 113.792 135.556 119.514C134.698 120.434 136.352 132.31 138.617 141.276C140.882 150.242 145.105 161.479 146.267 161.846C153.704 164.324 173.387 160.53 192.425 155.662C211.463 150.795 230.622 144.798 235.978 139.073C236.835 138.156 234.937 126.339 232.701 117.373C230.465 108.407 226.459 97.1406 225.264 96.7443V96.7443Z" fill="#00E6C5"/>
<path d="M184.495 121.05C183.666 121.051 182.865 120.748 182.244 120.199C181.622 119.65 181.222 118.893 181.12 118.07C181.017 117.247 181.219 116.415 181.687 115.73C182.156 115.045 182.858 114.555 183.662 114.352L215.859 106.182C216.515 106.005 217.208 106.028 217.851 106.249C218.493 106.47 219.054 106.878 219.462 107.42C219.871 107.963 220.107 108.615 220.142 109.294C220.176 109.972 220.006 110.645 219.655 111.226C219.421 111.611 219.114 111.947 218.749 112.213C218.385 112.478 217.971 112.669 217.533 112.773L185.327 120.953C185.055 121.019 184.776 121.052 184.495 121.05V121.05Z" fill="#027BF3"/>
<path opacity="0.5" d="M186.98 129.443C186.401 129.447 185.841 129.239 185.405 128.858C184.97 128.477 184.689 127.949 184.617 127.375C184.544 126.801 184.684 126.22 185.01 125.742C185.337 125.264 185.827 124.923 186.388 124.782L210.386 118.723C210.765 118.62 211.165 118.613 211.547 118.704C211.93 118.794 212.284 118.978 212.578 119.24C212.872 119.502 213.096 119.832 213.229 120.202C213.363 120.572 213.402 120.97 213.343 121.358C213.297 121.669 213.189 121.967 213.026 122.236C212.863 122.504 212.648 122.737 212.393 122.922C212.139 123.106 211.851 123.238 211.545 123.31L187.548 129.372C187.362 129.417 187.171 129.441 186.98 129.443V129.443ZM187.867 139.932C187.9 139.932 187.929 139.87 187.929 139.87L187.317 137.82C187.077 137 187.17 136.118 187.577 135.367C187.984 134.616 188.672 134.056 189.491 133.81C190.025 133.635 190.582 133.542 191.144 133.535C191.636 133.504 192.128 133.588 192.581 133.781C193.02 133.959 193.409 134.243 193.714 134.606C194.072 135.019 194.325 135.513 194.45 136.046C194.616 136.569 194.668 137.122 194.601 137.667C194.54 138.123 194.36 138.555 194.08 138.92C193.788 139.314 193.412 139.638 192.98 139.87C192.488 140.155 191.964 140.381 191.419 140.544L190.99 140.665C190.909 140.69 190.842 140.746 190.802 140.821C190.762 140.896 190.753 140.983 190.777 141.064L190.928 141.555C190.946 141.596 190.977 141.63 191.016 141.652C191.055 141.674 191.1 141.682 191.144 141.676L193.376 141.002C193.474 140.974 193.575 140.965 193.676 140.976C193.776 140.987 193.874 141.018 193.962 141.067C194.051 141.116 194.129 141.181 194.192 141.26C194.255 141.339 194.302 141.43 194.33 141.527C194.358 141.624 194.367 141.726 194.356 141.826C194.345 141.927 194.314 142.024 194.266 142.113C194.217 142.201 194.151 142.279 194.072 142.343C193.993 142.406 193.902 142.453 193.805 142.481L191.54 143.155C191.526 143.161 191.513 143.169 191.502 143.18C191.491 143.191 191.482 143.204 191.477 143.219C191.471 143.233 191.469 143.249 191.469 143.264C191.47 143.28 191.474 143.295 191.481 143.309L191.818 144.409C191.902 144.713 191.866 145.039 191.718 145.318C191.569 145.597 191.319 145.808 191.02 145.908C190.715 145.996 190.389 145.963 190.109 145.814C189.829 145.666 189.618 145.414 189.52 145.113L189.183 143.95C189.183 143.921 189.124 143.888 189.124 143.888L188.787 144.013C188.591 144.069 188.38 144.046 188.201 143.948C188.023 143.849 187.89 143.684 187.833 143.488C187.776 143.292 187.8 143.081 187.898 142.902C187.997 142.723 188.162 142.591 188.358 142.534L188.695 142.41C188.725 142.41 188.757 142.351 188.757 142.351L188.512 141.523C188.512 141.493 188.45 141.464 188.45 141.464L188.113 141.585C188.016 141.615 187.915 141.625 187.814 141.615C187.714 141.605 187.616 141.575 187.527 141.527C187.439 141.478 187.361 141.412 187.298 141.333C187.236 141.253 187.19 141.162 187.164 141.064C187.116 140.919 187.114 140.762 187.158 140.616C187.203 140.47 187.292 140.341 187.413 140.247C187.493 140.185 187.586 140.14 187.684 140.115L187.867 139.932V139.932ZM189.982 135.555C189.771 135.621 189.595 135.768 189.492 135.962C189.388 136.157 189.366 136.385 189.429 136.596L190.195 139.136C190.195 139.198 190.257 139.198 190.286 139.198L190.99 138.982C192.123 138.645 192.522 137.882 192.152 136.688C191.969 136.076 191.723 135.709 191.357 135.526C190.906 135.396 190.427 135.407 189.982 135.555V135.555ZM199.376 137.176C199.406 137.176 199.438 137.117 199.438 137.117L198.826 135.064C198.586 134.244 198.679 133.362 199.086 132.611C199.494 131.86 200.181 131.3 201 131.054C201.533 130.879 202.091 130.786 202.653 130.779C203.144 130.749 203.636 130.833 204.09 131.025C204.529 131.204 204.918 131.489 205.223 131.853C205.581 132.264 205.833 132.758 205.956 133.29C206.123 133.814 206.175 134.368 206.11 134.913C206.046 135.369 205.867 135.801 205.589 136.167C205.296 136.56 204.921 136.884 204.489 137.117C203.996 137.4 203.472 137.625 202.928 137.788L202.499 137.912C202.418 137.937 202.35 137.992 202.31 138.066C202.27 138.14 202.26 138.227 202.283 138.308L202.437 138.799C202.455 138.84 202.485 138.874 202.524 138.896C202.563 138.918 202.608 138.927 202.653 138.92L204.885 138.249C205.081 138.192 205.292 138.216 205.471 138.314C205.65 138.412 205.782 138.578 205.839 138.774C205.896 138.97 205.873 139.181 205.774 139.36C205.676 139.538 205.51 139.671 205.314 139.728L203.049 140.399C203.034 140.405 203.021 140.413 203.01 140.424C202.999 140.435 202.99 140.448 202.984 140.462C202.978 140.477 202.976 140.492 202.976 140.508C202.977 140.523 202.98 140.539 202.987 140.553L203.324 141.656C203.408 141.957 203.37 142.279 203.22 142.553C203.069 142.827 202.818 143.032 202.519 143.123C202.22 143.215 201.897 143.186 201.619 143.044C201.341 142.901 201.129 142.656 201.029 142.36L200.692 141.194C200.692 141.165 200.63 141.135 200.63 141.135L200.296 141.257C200.151 141.303 199.995 141.304 199.849 141.259C199.703 141.214 199.575 141.125 199.481 141.005C199.419 140.925 199.373 140.834 199.347 140.736C199.298 140.591 199.296 140.434 199.341 140.288C199.385 140.141 199.474 140.012 199.595 139.918C199.676 139.856 199.769 139.811 199.867 139.787L200.204 139.666C200.234 139.666 200.263 139.603 200.263 139.603L200.018 138.778C200.018 138.746 199.959 138.716 199.959 138.716L199.622 138.838C199.476 138.884 199.32 138.885 199.175 138.84C199.029 138.795 198.901 138.706 198.807 138.586C198.744 138.506 198.699 138.415 198.672 138.317C198.641 138.221 198.629 138.119 198.638 138.018C198.647 137.917 198.677 137.819 198.726 137.73C198.775 137.642 198.842 137.564 198.922 137.502C199.002 137.44 199.095 137.395 199.193 137.371L199.376 137.176V137.176ZM201.52 132.799C201.31 132.866 201.135 133.012 201.031 133.207C200.928 133.401 200.905 133.629 200.967 133.84L201.733 136.38C201.733 136.442 201.795 136.442 201.825 136.442L202.529 136.229C203.661 135.892 204.06 135.126 203.691 133.932C203.507 133.32 203.265 132.953 202.895 132.77C202.449 132.61 201.959 132.621 201.52 132.799V132.799ZM210.424 134.085C210.457 134.085 210.486 134.023 210.486 134.023L209.874 131.974C209.638 131.154 209.734 130.274 210.14 129.524C210.547 128.774 211.232 128.214 212.048 127.964C212.581 127.789 213.139 127.696 213.701 127.689C214.192 127.659 214.684 127.743 215.138 127.935C215.577 128.112 215.966 128.396 216.27 128.76C216.629 129.173 216.882 129.667 217.007 130.2C217.172 130.723 217.225 131.275 217.16 131.82C217.096 132.277 216.917 132.709 216.64 133.077C216.345 133.468 215.969 133.791 215.537 134.023C215.045 134.31 214.521 134.536 213.976 134.698L213.547 134.822C213.507 134.834 213.47 134.853 213.437 134.88C213.405 134.906 213.378 134.939 213.358 134.976C213.338 135.012 213.326 135.053 213.322 135.094C213.318 135.136 213.322 135.178 213.334 135.218L213.488 135.709C213.505 135.75 213.535 135.784 213.574 135.806C213.612 135.828 213.657 135.836 213.701 135.83L215.936 135.156C216.034 135.126 216.137 135.116 216.238 135.126C216.34 135.136 216.438 135.166 216.528 135.215C216.618 135.264 216.697 135.33 216.761 135.409C216.825 135.489 216.873 135.58 216.901 135.679C216.93 135.777 216.938 135.88 216.926 135.981C216.914 136.083 216.882 136.181 216.832 136.27C216.782 136.359 216.714 136.437 216.634 136.499C216.553 136.562 216.461 136.608 216.362 136.634L214.1 137.309C214.085 137.314 214.071 137.322 214.06 137.333C214.048 137.344 214.039 137.357 214.033 137.371C214.027 137.386 214.025 137.402 214.026 137.418C214.026 137.433 214.031 137.449 214.038 137.462L214.375 138.563C214.444 138.79 214.445 139.032 214.376 139.26C214.308 139.487 214.174 139.69 213.99 139.841C213.807 139.992 213.583 140.085 213.347 140.109C213.11 140.134 212.872 140.087 212.662 139.976C212.523 139.902 212.4 139.801 212.299 139.679C212.199 139.558 212.123 139.417 212.077 139.266L211.743 138.104C211.743 138.075 211.681 138.042 211.681 138.042L211.344 138.166C211.247 138.197 211.146 138.207 211.045 138.197C210.945 138.187 210.847 138.157 210.758 138.108C210.67 138.06 210.592 137.994 210.529 137.914C210.467 137.835 210.421 137.743 210.395 137.646C210.347 137.501 210.345 137.344 210.389 137.198C210.434 137.051 210.523 136.922 210.644 136.828C210.724 136.766 210.817 136.721 210.915 136.697L211.252 136.572C211.282 136.572 211.314 136.513 211.314 136.513L211.069 135.685C211.069 135.656 211.007 135.626 211.007 135.626L210.67 135.747C210.475 135.798 210.269 135.771 210.095 135.672C209.921 135.572 209.792 135.409 209.736 135.217C209.68 135.024 209.702 134.817 209.796 134.64C209.89 134.463 210.05 134.33 210.241 134.269L210.424 134.085V134.085ZM212.568 129.709C212.358 129.776 212.183 129.922 212.08 130.117C211.977 130.311 211.955 130.539 212.018 130.75L212.781 133.29C212.781 133.352 212.843 133.352 212.876 133.352L213.579 133.136C214.712 132.799 215.108 132.036 214.742 130.841C214.558 130.229 214.313 129.863 213.946 129.679C213.499 129.52 213.008 129.53 212.568 129.709V129.709Z" fill="white"/>
<path d="M170.822 151.271C179.459 147.481 183.377 137.382 179.574 128.714C175.771 120.046 165.686 116.09 157.049 119.88C148.412 123.67 144.494 133.769 148.297 142.437C152.1 151.105 162.185 155.06 170.822 151.271Z" fill="#027BF3"/>
<g clip-path="url(#clip0)">
<path fill-rule="evenodd" clip-rule="evenodd" d="M155.851 128.921L171.238 124.887C171.606 124.791 171.936 124.962 172.033 125.329L174.369 134.243C174.465 134.61 174.419 134.908 174.052 135.005L163.532 137.762L161.373 129.525C161.279 129.166 160.911 128.951 160.552 129.045L153.812 130.812C153.453 130.906 153.238 131.274 153.332 131.633L157.207 146.414C157.301 146.773 157.668 146.988 158.027 146.894L164.768 145.127C165.127 145.033 165.342 144.665 165.248 144.306L163.865 139.032L174.384 136.274C175.453 135.994 175.919 134.979 175.639 133.91L173.31 125.027C172.976 123.753 172.175 123.285 170.905 123.618L157.151 127.223C156.147 127.486 155.81 128.133 155.851 128.921ZM160.175 131.858L155.52 133.078L155.853 134.348L160.508 133.127L160.175 131.858ZM156.186 135.617L160.841 134.397L161.174 135.667L156.519 136.887L156.186 135.617ZM170.587 142.245L171.856 141.912L172.189 143.182L166.688 144.624L166.355 143.354L167.201 143.132L165.467 139.968L170.546 138.637L170.587 142.245Z" fill="#00E6C5"/>
</g>
<path d="M224.748 21.696C217.311 19.218 193.192 23.7454 174.154 28.6128C155.116 33.4803 135.957 39.4774 130.601 45.2024C129.744 46.1191 131.397 57.995 133.662 66.964C135.927 75.933 140.15 87.1643 141.315 87.5309C148.752 90.012 168.432 86.215 187.47 81.3505C206.508 76.486 230.106 69.794 235.462 64.0571C236.319 63.1375 234.421 51.3237 232.188 42.3547C229.955 33.3856 225.943 22.0953 224.748 21.696V21.696Z" fill="#027BF3"/>
<path d="M182.265 46.8286C181.436 46.8287 180.635 46.5259 180.014 45.977C179.392 45.4281 178.992 44.6711 178.889 43.8481C178.787 43.0251 178.989 42.1929 179.457 41.5083C179.925 40.8236 180.627 40.3337 181.431 40.1307L215.864 31.3776C216.298 31.2656 216.749 31.2404 217.192 31.3032C217.635 31.3661 218.062 31.5158 218.447 31.7438C218.832 31.9719 219.169 32.2737 219.437 32.632C219.705 32.9903 219.9 33.3981 220.011 33.8319C220.121 34.2657 220.144 34.717 220.08 35.16C220.016 35.603 219.864 36.0288 219.635 36.4132C219.405 36.7976 219.102 37.1329 218.743 37.3999C218.384 37.6668 217.975 37.8603 217.541 37.969L183.108 46.7281C182.832 46.7961 182.549 46.8298 182.265 46.8286Z" fill="white"/>
<path d="M184.528 55.2731C183.949 55.2774 183.389 55.0692 182.953 54.6881C182.518 54.307 182.237 53.7794 182.164 53.2051C182.092 52.6311 182.232 52.0503 182.558 51.5726C182.885 51.0949 183.375 50.7534 183.936 50.6126L209.43 44.1542C210.038 44.0003 210.683 44.0941 211.222 44.415C211.76 44.7364 212.15 45.2583 212.304 45.8664C212.419 46.32 212.397 46.7974 212.24 47.2383C212.084 47.6793 211.8 48.064 211.425 48.3439C211.176 48.5296 210.893 48.6644 210.592 48.7407L185.099 55.1991C184.912 55.2473 184.72 55.2722 184.528 55.2731V55.2731ZM167.489 75.6271C176.097 71.7713 179.938 61.6425 176.068 53.0038C172.198 44.3648 162.083 40.4873 153.476 44.3432C144.868 48.199 141.028 58.3278 144.897 66.9665C148.767 75.6052 158.882 79.4829 167.489 75.6271V75.6271Z" fill="#67CFF8"/>
<g clip-path="url(#clip1)">
<path fill-rule="evenodd" clip-rule="evenodd" d="M163.378 46.0393C169.486 48.6235 173.116 56.5453 169.638 63.0576C168.492 65.2035 166.542 66.7953 164.303 67.7985L165.557 70.7211L168.305 69.8863C168.503 69.8261 168.713 69.9379 168.773 70.1361L169.127 71.3022L158.453 74.545L158.099 73.3789C158.038 73.1807 158.15 72.9713 158.348 72.911L160.867 72.146L160.642 68.8836C157.612 69.367 154.415 68.9173 152.01 67.3195C151.923 67.2615 151.848 67.1869 151.789 67.1C151.731 67.0132 151.69 66.9156 151.67 66.813C151.628 66.6058 151.671 66.3906 151.788 66.2146C151.905 66.0386 152.087 65.9164 152.294 65.8747C152.501 65.8331 152.717 65.8754 152.893 65.9925C155.101 67.4592 158.257 67.8264 161.252 67.1429C164.247 66.4601 166.92 64.7642 168.232 62.307C171.215 56.7215 168.111 49.7734 162.759 47.5073C162.662 47.4666 162.575 47.4074 162.501 47.3329C162.428 47.2584 162.37 47.1702 162.33 47.0733C162.291 46.9763 162.271 46.8726 162.272 46.7679C162.272 46.6633 162.294 46.5598 162.334 46.4634C162.375 46.3669 162.434 46.2795 162.509 46.206C162.583 46.1324 162.671 46.0743 162.768 46.0349C162.865 45.9955 162.969 45.9755 163.074 45.9762C163.178 45.9769 163.282 45.9981 163.378 46.0388L163.378 46.0393ZM161.22 65.3761C165.712 64.0115 168.247 59.2644 166.882 54.7724C165.517 50.2805 160.77 47.7455 156.278 49.1101C155.477 49.3526 154.716 49.7121 154.02 50.1769L156.117 50.4082L157.575 52.464L161.237 52.1842L162.314 54.3558L159.264 55.2823L156.561 57.3525L153.811 56.5224L152.652 52.7101L151.954 52.1356C150.382 54.2298 149.797 57.0177 150.616 59.7138C151.981 64.2058 156.728 66.7407 161.22 65.3761ZM157.134 58.4849L154.949 60.3242L156.711 60.9643L157.506 62.2908L158.582 61.9637L159.004 59.4836L157.133 58.4846L157.134 58.4849Z" fill="#027BF3"/>
</g>
<path opacity="0.2" d="M207.931 124.106C202.575 129.831 183.475 135.86 164.378 140.695C156.175 142.765 147.88 144.676 140.472 145.959C140.044 144.48 139.615 143.002 139.29 141.582C137.027 132.616 135.374 120.74 136.229 119.821C141.587 114.099 160.684 108.069 179.785 103.231C187.896 101.161 196.129 99.2834 203.474 98C203.892 99.4624 204.286 100.931 204.657 102.406C206.89 111.375 208.759 123.189 207.931 124.106Z" fill="black"/>
<path d="M181.867 70.6788C174.43 68.2007 154.747 71.9947 135.709 76.8621C116.671 81.7296 97.4995 87.7119 92.156 93.4488C91.2984 94.3655 92.9515 106.241 95.2166 115.21C97.4818 124.179 101.705 135.411 102.87 135.777C110.307 138.258 129.987 134.461 149.025 129.597C168.063 124.732 187.222 118.729 192.578 113.007C193.435 112.088 191.537 100.274 189.304 91.3048C187.039 82.389 183.059 71.0632 181.867 70.6788V70.6788Z" fill="white"/>
<path d="M100.906 138.335C98.7057 138.335 96.9255 138.173 95.7811 137.782C95.3878 137.649 94.5746 137.371 92.0581 130.197C90.5618 125.933 89.0507 120.838 88.0157 116.568C86.9629 112.224 85.9457 107.007 85.304 102.616C84.2009 95.0901 84.7658 94.4839 85.0703 94.1556C90.0236 88.9215 124.8 78.9411 131.719 77.0042C131.908 76.9511 132.111 76.9751 132.282 77.071C132.453 77.167 132.579 77.3269 132.633 77.5158C132.66 77.6094 132.667 77.7073 132.656 77.8039C132.645 77.9005 132.614 77.994 132.567 78.0789C132.519 78.1637 132.456 78.2384 132.379 78.2986C132.303 78.3588 132.215 78.4033 132.121 78.4295C102.047 86.8899 88.6189 92.6948 86.2029 95.1256C85.7387 96.5302 87.2379 107.087 89.4558 116.231C91.7653 125.759 95.3346 135.431 96.3341 136.419C100.793 137.844 118.048 135.606 132.116 132.758C132.308 132.719 132.508 132.758 132.671 132.866C132.794 132.946 132.889 133.061 132.946 133.196C133.003 133.331 133.018 133.48 132.991 133.624C132.963 133.767 132.893 133.899 132.79 134.003C132.686 134.107 132.555 134.178 132.411 134.207C124.273 135.842 109.446 138.335 100.906 138.335V138.335Z" fill="#DAE7F2"/>
<path d="M134.731 95.3695C133.902 95.3691 133.102 95.0659 132.481 94.5168C131.859 93.9676 131.46 93.2104 131.358 92.3876C131.256 91.5647 131.458 90.7329 131.926 90.0486C132.394 89.3643 133.096 88.8746 133.9 88.6715L168.794 79.8267C169.669 79.6053 170.596 79.7403 171.371 80.2019C172.146 80.6636 172.706 81.4141 172.927 82.2886C173.037 82.7216 173.06 83.172 172.996 83.614C172.932 84.0561 172.781 84.4811 172.552 84.8649C172.324 85.2487 172.022 85.5836 171.664 85.8506C171.306 86.1177 170.898 86.3115 170.465 86.4212L135.571 95.266C135.297 95.3352 135.014 95.3698 134.731 95.3695V95.3695Z" fill="#FFCC00"/>
<path d="M137.792 103.242C137.214 103.247 136.653 103.039 136.218 102.657C135.782 102.276 135.502 101.749 135.429 101.175C135.356 100.6 135.496 100.02 135.823 99.5418C136.149 99.064 136.64 98.7225 137.201 98.582L163.247 92.0024C163.627 91.8994 164.026 91.8928 164.409 91.983C164.792 92.0733 165.146 92.2575 165.44 92.5192C165.734 92.7809 165.957 93.1116 166.091 93.4815C166.225 93.8515 166.264 94.2489 166.205 94.6378C166.159 94.9484 166.051 95.2467 165.887 95.5151C165.724 95.7835 165.509 96.0167 165.255 96.2009C165.001 96.3852 164.712 96.5171 164.407 96.5889L138.36 103.172C138.174 103.217 137.984 103.241 137.792 103.242V103.242ZM140.424 114.988C140.457 114.988 140.486 114.926 140.486 114.897L139.788 112.673C139.647 112.231 139.595 111.765 139.635 111.302C139.676 110.839 139.809 110.39 140.026 109.979C140.242 109.569 140.539 109.205 140.898 108.911C141.257 108.616 141.671 108.396 142.116 108.264C142.697 108.067 143.306 107.967 143.92 107.968C144.452 107.919 144.989 108.003 145.481 108.213C145.96 108.412 146.39 108.715 146.738 109.101C147.132 109.549 147.414 110.084 147.563 110.662C147.754 111.233 147.816 111.839 147.746 112.436C147.681 112.934 147.492 113.408 147.196 113.814C146.885 114.254 146.481 114.619 146.013 114.885C145.479 115.208 144.903 115.456 144.301 115.621L143.84 115.772C143.797 115.785 143.758 115.807 143.724 115.836C143.69 115.865 143.662 115.901 143.642 115.941C143.622 115.981 143.611 116.025 143.608 116.069C143.605 116.114 143.612 116.159 143.627 116.201L143.781 116.754C143.787 116.778 143.799 116.802 143.815 116.821C143.831 116.841 143.852 116.857 143.875 116.869C143.897 116.88 143.923 116.887 143.948 116.888C143.974 116.889 143.999 116.884 144.023 116.875L146.442 116.109C146.546 116.073 146.657 116.058 146.767 116.067C146.877 116.075 146.984 116.106 147.082 116.158C147.18 116.209 147.266 116.28 147.335 116.367C147.404 116.453 147.454 116.552 147.483 116.659C147.518 116.763 147.532 116.874 147.523 116.983C147.514 117.093 147.482 117.2 147.431 117.297C147.38 117.395 147.309 117.48 147.223 117.55C147.138 117.619 147.039 117.67 146.933 117.7L144.484 118.466C144.466 118.471 144.448 118.48 144.433 118.492C144.418 118.504 144.406 118.519 144.397 118.537C144.388 118.554 144.384 118.573 144.383 118.593C144.382 118.612 144.385 118.631 144.393 118.649L144.759 119.832C144.812 119.997 144.831 120.17 144.816 120.343C144.802 120.515 144.753 120.683 144.673 120.836C144.594 120.99 144.485 121.126 144.352 121.237C144.22 121.349 144.067 121.433 143.902 121.485C143.654 121.564 143.388 121.567 143.137 121.495C142.887 121.422 142.664 121.277 142.497 121.078C142.385 120.945 142.301 120.792 142.249 120.628L141.853 119.374C141.853 119.341 141.79 119.312 141.758 119.312L141.391 119.433C141.234 119.488 141.064 119.493 140.904 119.447C140.744 119.4 140.602 119.306 140.498 119.175C140.43 119.089 140.379 118.989 140.35 118.883C140.316 118.778 140.303 118.668 140.313 118.558C140.322 118.448 140.354 118.342 140.405 118.245C140.457 118.147 140.528 118.062 140.613 117.992C140.699 117.923 140.797 117.872 140.903 117.842L141.267 117.7C141.297 117.7 141.329 117.638 141.329 117.608L141.033 116.689C141.033 116.659 140.971 116.626 140.942 116.626L140.575 116.751C140.469 116.791 140.355 116.808 140.242 116.803C140.128 116.797 140.017 116.768 139.915 116.718C139.813 116.668 139.723 116.597 139.649 116.511C139.575 116.424 139.52 116.324 139.486 116.215C139.452 116.107 139.441 115.993 139.454 115.88C139.466 115.767 139.501 115.657 139.558 115.559C139.613 115.46 139.689 115.373 139.78 115.305C139.87 115.236 139.974 115.187 140.084 115.16L140.424 114.988V114.988ZM142.66 110.212C142.545 110.246 142.439 110.303 142.347 110.378C142.255 110.454 142.179 110.547 142.123 110.653C142.068 110.759 142.035 110.875 142.025 110.993C142.016 111.112 142.03 111.232 142.068 111.345L142.926 114.131C142.926 114.19 142.988 114.19 143.018 114.19L143.784 113.947C145.008 113.548 145.437 112.723 145.008 111.407C144.795 110.762 144.517 110.334 144.15 110.15C143.662 109.99 143.133 110.012 142.66 110.212V110.212ZM152.454 112.081C152.483 112.081 152.516 112.022 152.516 111.99L151.812 109.757C151.671 109.315 151.618 108.849 151.659 108.387C151.7 107.925 151.832 107.475 152.048 107.064C152.265 106.654 152.561 106.291 152.92 105.996C153.278 105.701 153.692 105.481 154.137 105.348C154.781 105.135 154.811 105.052 155.361 105.052C155.911 105.052 157.014 105.082 157.505 105.298C157.984 105.496 158.412 105.799 158.759 106.185C159.154 106.633 159.438 107.168 159.587 107.746C159.776 108.317 159.838 108.923 159.77 109.52C159.705 110.019 159.514 110.493 159.217 110.899C158.905 111.337 158.501 111.702 158.034 111.969C157.499 112.291 156.922 112.538 156.319 112.702L155.861 112.856C155.818 112.87 155.778 112.891 155.744 112.92C155.71 112.949 155.682 112.985 155.662 113.025C155.642 113.065 155.63 113.108 155.627 113.153C155.624 113.198 155.63 113.243 155.645 113.285L155.798 113.835C155.805 113.86 155.817 113.884 155.833 113.904C155.849 113.925 155.87 113.941 155.893 113.953C155.916 113.965 155.942 113.971 155.968 113.972C155.994 113.973 156.02 113.969 156.044 113.959L158.463 113.193C158.567 113.157 158.678 113.143 158.788 113.151C158.898 113.159 159.005 113.19 159.103 113.242C159.201 113.293 159.287 113.365 159.355 113.451C159.424 113.537 159.475 113.637 159.504 113.743C159.539 113.848 159.552 113.958 159.543 114.068C159.534 114.178 159.502 114.285 159.45 114.382C159.399 114.48 159.328 114.565 159.242 114.635C159.156 114.704 159.057 114.755 158.951 114.784L156.502 115.55C156.483 115.555 156.466 115.564 156.451 115.576C156.436 115.588 156.424 115.604 156.415 115.621C156.406 115.638 156.401 115.657 156.401 115.677C156.4 115.696 156.403 115.715 156.411 115.733L156.777 116.916C156.835 117.082 156.859 117.258 156.848 117.434C156.836 117.61 156.79 117.781 156.711 117.938C156.633 118.096 156.523 118.236 156.389 118.35C156.256 118.464 156.1 118.551 155.933 118.604C155.765 118.657 155.588 118.676 155.413 118.66C155.238 118.644 155.068 118.593 154.913 118.509C154.757 118.426 154.621 118.313 154.51 118.176C154.4 118.039 154.318 117.881 154.27 117.712L153.87 116.455C153.87 116.425 153.808 116.396 153.779 116.396L153.391 116.517C153.285 116.557 153.171 116.575 153.058 116.569C152.944 116.564 152.833 116.535 152.731 116.485C152.629 116.434 152.539 116.364 152.465 116.277C152.391 116.191 152.336 116.09 152.302 115.982C152.269 115.873 152.258 115.759 152.27 115.646C152.283 115.533 152.318 115.424 152.373 115.325C152.43 115.226 152.505 115.14 152.596 115.071C152.686 115.003 152.79 114.953 152.9 114.926L153.267 114.802C153.3 114.802 153.329 114.743 153.329 114.71L153.033 113.794C153.033 113.764 152.971 113.731 152.942 113.731L152.572 113.856C152.468 113.892 152.357 113.906 152.247 113.898C152.137 113.889 152.03 113.858 151.933 113.806C151.835 113.754 151.749 113.682 151.681 113.596C151.612 113.509 151.562 113.409 151.534 113.303C151.499 113.198 151.486 113.088 151.495 112.978C151.503 112.869 151.535 112.762 151.586 112.665C151.638 112.567 151.709 112.481 151.794 112.412C151.88 112.343 151.978 112.292 152.084 112.262L152.454 112.081V112.081ZM154.689 107.276C154.575 107.31 154.469 107.366 154.377 107.442C154.284 107.518 154.208 107.611 154.153 107.717C154.098 107.822 154.064 107.938 154.055 108.057C154.045 108.176 154.06 108.296 154.098 108.409L154.956 111.194C154.956 111.256 155.018 111.256 155.047 111.256L155.813 111.011C157.037 110.612 157.466 109.787 157.037 108.471C156.822 107.829 156.547 107.4 156.18 107.217C155.689 107.086 155.169 107.105 154.689 107.273V107.276V107.276Z" fill="#DAE7F2"/>
<path d="M122.145 126.285C130.735 122.389 134.528 112.242 130.617 103.622C126.707 95.0009 116.574 91.1711 107.985 95.0675C99.3952 98.9638 95.6024 109.111 99.5126 117.731C103.423 126.351 113.556 130.181 122.145 126.285Z" fill="#FFCC00"/>
<path d="M97.5735 72.9521C97.3846 72.9518 97.2029 72.8799 97.0648 72.751L79.6502 56.3152C79.5108 56.1799 79.4303 55.9952 79.426 55.801C79.4216 55.6068 79.4939 55.4187 79.6271 55.2773C79.7603 55.1359 79.9438 55.0526 80.1379 55.0454C80.332 55.0382 80.5212 55.1077 80.6645 55.2388L98.0821 71.6746C98.19 71.7763 98.2649 71.9079 98.2968 72.0528C98.329 72.1974 98.3169 72.3485 98.2619 72.4863C98.2071 72.624 98.1122 72.7421 97.9894 72.8252C97.8666 72.9083 97.7217 72.9525 97.5735 72.9521ZM82.7283 84.7363C82.6312 84.7384 82.5347 84.7214 82.4442 84.6862C82.3537 84.651 82.271 84.5984 82.2008 84.5312C82.1306 84.4641 82.0744 84.3838 82.0353 84.2949C81.9961 84.206 81.9749 84.1103 81.9728 84.0132C81.9706 83.9162 81.9876 83.8196 82.0228 83.7291C82.058 83.6386 82.1107 83.5559 82.1778 83.4857C82.2449 83.4156 82.3252 83.3593 82.4141 83.3202C82.503 83.2811 82.5987 83.2598 82.6958 83.2577L100.847 82.4326C101.043 82.4246 101.234 82.4944 101.378 82.6269C101.523 82.7593 101.609 82.9435 101.619 83.1394C101.625 83.2857 101.588 83.4306 101.512 83.5558C101.436 83.681 101.325 83.7808 101.192 83.8426C101.104 83.8837 101.009 83.9071 100.912 83.9112L82.7608 84.7392L82.7283 84.7363ZM229.767 89.0359C229.597 89.0357 229.432 88.9771 229.301 88.87C229.169 88.7629 229.078 88.6139 229.044 88.4478C229.009 88.2816 229.033 88.1087 229.111 87.9579C229.188 87.8071 229.316 87.6876 229.471 87.6195L261.183 73.9338C261.318 73.8751 261.466 73.8576 261.61 73.8834C261.755 73.9093 261.888 73.9774 261.993 74.0791C262.099 74.1808 262.172 74.3115 262.203 74.4547C262.234 74.5979 262.222 74.7471 262.168 74.8834C262.096 75.066 261.955 75.2127 261.775 75.2912L230.065 88.9738C229.971 89.0152 229.87 89.0365 229.767 89.0359ZM233.927 95.4322C233.83 95.4338 233.733 95.4163 233.643 95.3806C233.553 95.3449 233.47 95.2918 233.401 95.2242C233.331 95.1566 233.275 95.076 233.237 94.9869C233.198 94.8977 233.177 94.8019 233.176 94.7048C233.173 94.5088 233.248 94.3196 233.384 94.1788C233.521 94.038 233.707 93.957 233.903 93.9537L252.051 93.312C252.148 93.3084 252.245 93.324 252.336 93.3579C252.427 93.3918 252.511 93.4433 252.582 93.5095C252.653 93.5757 252.711 93.6553 252.751 93.7437C252.791 93.8321 252.814 93.9275 252.817 94.0246C252.821 94.1218 252.805 94.2186 252.771 94.3097C252.738 94.4008 252.686 94.4843 252.62 94.5554C252.554 94.6265 252.474 94.6839 252.386 94.7243C252.297 94.7646 252.202 94.7871 252.105 94.7905L233.954 95.4322H233.927V95.4322Z" fill="#00E6C5"/>
<path d="M185.599 66.7179C185.632 66.7179 185.661 66.6558 185.661 66.6262L184.957 64.3936C184.816 63.9514 184.764 63.4854 184.804 63.0228C184.845 62.5603 184.978 62.1105 185.195 61.6999C185.411 61.2893 185.708 60.9261 186.067 60.6315C186.426 60.337 186.84 60.117 187.285 59.9845C187.866 59.7881 188.475 59.6882 189.089 59.6888C189.621 59.6388 190.158 59.7222 190.65 59.9312C191.129 60.1314 191.558 60.4343 191.907 60.8184C192.301 61.2657 192.583 61.7996 192.732 62.3768C192.922 62.9478 192.985 63.5534 192.915 64.1511C192.849 64.6491 192.66 65.1227 192.365 65.5291C192.053 65.9671 191.649 66.3322 191.182 66.5996C190.648 66.922 190.072 67.1688 189.47 67.333L189.009 67.4867C188.966 67.5002 188.927 67.5221 188.893 67.5511C188.859 67.5802 188.831 67.6158 188.811 67.6558C188.791 67.6959 188.78 67.7395 188.777 67.7841C188.774 67.8287 188.781 67.8734 188.796 67.9155L188.95 68.4656C188.956 68.4906 188.967 68.514 188.983 68.5342C188.999 68.5544 189.02 68.571 189.042 68.583C189.065 68.5947 189.091 68.6015 189.117 68.6026C189.142 68.6038 189.168 68.5994 189.192 68.5898L191.611 67.8239C191.768 67.7693 191.938 67.7648 192.098 67.8109C192.258 67.8571 192.4 67.9516 192.504 68.0814C192.573 68.1678 192.623 68.2671 192.652 68.3739C192.704 68.5311 192.707 68.7006 192.661 68.8596C192.614 69.0186 192.52 69.1597 192.391 69.264C192.306 69.3332 192.208 69.3845 192.102 69.4148L189.653 70.1807C189.634 70.1852 189.617 70.1938 189.601 70.2059C189.586 70.218 189.573 70.2333 189.564 70.2508C189.556 70.2683 189.551 70.2875 189.55 70.3071C189.55 70.3267 189.554 70.3461 189.562 70.364L189.928 71.5469C189.981 71.7118 190 71.8853 189.985 72.0576C189.97 72.2298 189.922 72.3975 189.842 72.551C189.762 72.7045 189.653 72.8408 189.521 72.9522C189.389 73.0635 189.236 73.1477 189.071 73.1999C188.906 73.2522 188.732 73.2714 188.56 73.2566C188.388 73.2418 188.22 73.1931 188.067 73.1135C187.913 73.0339 187.777 72.9248 187.666 72.7925C187.554 72.6602 187.47 72.5072 187.418 72.3424L187.019 71.0856C187.019 71.056 186.959 71.0264 186.927 71.0264L186.56 71.1477C186.456 71.1841 186.345 71.1985 186.235 71.19C186.125 71.1819 186.018 71.1511 185.92 71.0995C185.822 71.0479 185.736 70.9766 185.667 70.8901C185.598 70.8039 185.548 70.7043 185.519 70.5977C185.484 70.4931 185.471 70.3825 185.48 70.2727C185.49 70.1628 185.521 70.056 185.573 69.9586C185.624 69.8613 185.695 69.7755 185.781 69.7064C185.867 69.6373 185.966 69.5864 186.072 69.5567L186.439 69.4325C186.469 69.4325 186.501 69.3734 186.501 69.3409L186.205 68.4242C186.205 68.3916 186.143 68.3621 186.114 68.3621L185.747 68.4833C185.641 68.5233 185.527 68.541 185.414 68.5354C185.3 68.5299 185.189 68.501 185.087 68.4508C184.985 68.4004 184.895 68.3299 184.821 68.2435C184.747 68.1571 184.692 68.0566 184.658 67.9481C184.625 67.8395 184.614 67.7252 184.626 67.6123C184.638 67.4994 184.673 67.3902 184.729 67.2913C184.785 67.1923 184.861 67.1059 184.951 67.0373C185.042 66.9687 185.146 66.9194 185.256 66.8924L185.599 66.7179V66.7179ZM187.864 61.9451C187.75 61.9788 187.644 62.0352 187.551 62.1109C187.459 62.1866 187.383 62.28 187.328 62.3857C187.273 62.4914 187.239 62.6071 187.23 62.726C187.22 62.845 187.235 62.9646 187.273 63.0776L188.13 65.8603C188.13 65.9224 188.19 65.9224 188.222 65.9224L188.985 65.677C190.209 65.2807 190.638 64.4527 190.209 63.1368C189.996 62.4951 189.721 62.0663 189.355 61.883C188.867 61.7235 188.337 61.7456 187.864 61.9451V61.9451ZM197.658 63.8406C197.691 63.8406 197.72 63.7814 197.72 63.7489L197.017 61.5163C196.875 61.0741 196.823 60.6081 196.864 60.1455C196.904 59.683 197.037 59.2332 197.254 58.8226C197.471 58.412 197.767 58.0488 198.126 57.7543C198.485 57.4597 198.899 57.2397 199.344 57.1072C199.986 56.8943 200.015 56.8115 200.568 56.8115C201.121 56.8115 202.221 56.841 202.709 57.0569C203.189 57.256 203.618 57.559 203.966 57.9441C204.36 58.392 204.643 58.9271 204.791 59.5054C204.982 60.0761 205.044 60.6821 204.974 61.2797C204.909 61.7777 204.72 62.2514 204.424 62.6577C204.113 63.0964 203.709 63.4617 203.241 63.7282C202.707 64.0508 202.131 64.2976 201.529 64.4616L201.068 64.6154C201.025 64.6288 200.986 64.6507 200.952 64.6797C200.918 64.7088 200.89 64.7444 200.87 64.7844C200.85 64.8245 200.839 64.8681 200.836 64.9127C200.834 64.9574 200.84 65.0021 200.855 65.0441L201.009 65.5942C201.015 65.6192 201.027 65.6426 201.043 65.6628C201.059 65.683 201.079 65.6997 201.102 65.7116C201.125 65.7234 201.15 65.7301 201.176 65.7312C201.202 65.7324 201.227 65.728 201.251 65.7184L203.67 64.9525C203.827 64.898 203.998 64.8934 204.158 64.9396C204.317 64.9857 204.459 65.0802 204.563 65.21C204.632 65.2964 204.682 65.3958 204.711 65.5025C204.763 65.6598 204.766 65.8292 204.72 65.9882C204.673 66.1472 204.579 66.2883 204.451 66.3926C204.365 66.4619 204.267 66.5132 204.161 66.5434L201.713 67.3093C201.694 67.3138 201.676 67.3224 201.66 67.3345C201.645 67.3466 201.632 67.3619 201.624 67.3794C201.615 67.397 201.61 67.4162 201.61 67.4357C201.61 67.4553 201.613 67.4747 201.621 67.4927L201.988 68.6755C202.093 69.0084 202.062 69.3696 201.901 69.6796C201.74 69.9897 201.463 70.2231 201.13 70.3286C200.797 70.434 200.436 70.403 200.126 70.2421C199.816 70.0813 199.582 69.8039 199.477 69.471L199.081 68.2142C199.081 68.1846 199.019 68.1551 198.986 68.1551L198.619 68.2763C198.408 68.3409 198.18 68.3192 197.985 68.216C197.791 68.1123 197.645 67.9357 197.58 67.7248C197.516 67.5138 197.537 67.2858 197.641 67.0908C197.744 66.896 197.921 66.7503 198.132 66.6854L198.498 66.5612C198.528 66.5612 198.56 66.502 198.56 66.4695L198.265 65.5528C198.265 65.5232 198.202 65.4907 198.173 65.4907L197.806 65.6149C197.702 65.6513 197.591 65.6658 197.48 65.6572C197.37 65.6487 197.263 65.6173 197.165 65.5652C197.067 65.5135 196.981 65.442 196.912 65.3554C196.844 65.2688 196.794 65.1688 196.765 65.0619C196.73 64.9576 196.717 64.8472 196.726 64.7375C196.735 64.6277 196.766 64.521 196.817 64.4237C196.869 64.3265 196.94 64.2407 197.025 64.1714C197.111 64.1022 197.209 64.051 197.315 64.021L197.658 63.8406V63.8406ZM199.894 59.0352C199.78 59.069 199.673 59.1254 199.581 59.2011C199.489 59.2768 199.413 59.3702 199.358 59.4758C199.302 59.5815 199.269 59.6973 199.259 59.8162C199.25 59.9351 199.265 60.0547 199.303 60.1678L200.16 62.9534C200.16 63.0155 200.222 63.0155 200.252 63.0155L201.018 62.7701C202.242 62.3709 202.671 61.5458 202.242 60.2299C202.029 59.5882 201.751 59.1594 201.384 58.9761C201.018 58.7927 200.536 58.8519 199.894 59.0352V59.0352ZM209.596 59.9549C209.626 59.9549 209.659 59.8928 209.659 59.8632L208.955 57.6276C208.813 57.1859 208.761 56.7202 208.801 56.258C208.842 55.7958 208.974 55.3463 209.191 54.936C209.408 54.5258 209.704 54.1628 210.062 53.8682C210.421 53.5739 210.835 53.354 211.279 53.2215C211.924 53.0056 211.953 52.9258 212.504 52.9258C213.054 52.9258 214.157 52.9583 214.647 53.1712C215.126 53.3707 215.554 53.6737 215.901 54.0584C216.296 54.5069 216.579 55.0417 216.729 55.6197C216.918 56.1908 216.981 56.7963 216.913 57.394C216.848 57.8927 216.657 58.3669 216.359 58.772C216.048 59.211 215.644 59.5764 215.176 59.8425C214.642 60.1666 214.065 60.4145 213.462 60.5789L213.003 60.7326C212.939 60.7524 212.882 60.7912 212.841 60.8437C212.799 60.8963 212.774 60.9602 212.769 61.0272C212.766 61.0718 212.773 61.1165 212.787 61.1585L212.941 61.7114C212.952 61.7485 212.974 61.7813 213.005 61.8052C213.035 61.8291 213.073 61.8429 213.111 61.8448C213.137 61.846 213.162 61.8419 213.186 61.8327L215.606 61.0668C215.711 61.0305 215.823 61.0159 215.935 61.0239C216.046 61.0316 216.155 61.0617 216.255 61.1125C216.355 61.1632 216.443 61.2335 216.515 61.3192C216.587 61.4049 216.641 61.5043 216.674 61.6113C216.706 61.7183 216.717 61.8308 216.705 61.9421C216.688 62.1097 216.62 62.2681 216.511 62.3964C216.402 62.5246 216.256 62.6168 216.093 62.6607L213.645 63.4236C213.617 63.4319 213.593 63.4485 213.575 63.4712C213.557 63.4939 213.546 63.5216 213.544 63.5505C213.543 63.5697 213.546 63.5889 213.553 63.607L213.92 64.7898C213.978 64.956 214.002 65.132 213.99 65.3076C213.979 65.4832 213.933 65.6547 213.854 65.8121C213.775 65.9694 213.666 66.1094 213.532 66.2236C213.398 66.3379 213.243 66.4242 213.075 66.4774C212.907 66.5306 212.731 66.5496 212.555 66.5334C212.38 66.5171 212.21 66.4659 212.055 66.3827C211.9 66.2995 211.763 66.1861 211.653 66.0491C211.542 65.9122 211.46 65.7545 211.412 65.5853L211.013 64.3315C211.013 64.3019 210.951 64.2694 210.921 64.2694L210.555 64.3936C210.344 64.4568 210.117 64.4341 209.923 64.3303C209.728 64.2268 209.583 64.0506 209.518 63.8402C209.453 63.6298 209.474 63.4023 209.577 63.2075C209.679 63.0126 209.854 62.866 210.064 62.7997L210.431 62.6784C210.463 62.6784 210.493 62.6163 210.493 62.5868L210.197 61.6671C210.197 61.6375 210.135 61.6079 210.105 61.6079L209.736 61.7292C209.525 61.7935 209.297 61.7718 209.102 61.6689C208.956 61.5916 208.837 61.4731 208.759 61.3282C208.681 61.1833 208.648 61.0186 208.664 60.8548C208.679 60.691 208.743 60.5356 208.847 60.408C208.951 60.2805 209.09 60.1866 209.248 60.1382L209.596 59.9549V59.9549ZM211.862 55.1495C211.747 55.183 211.641 55.2393 211.548 55.315C211.456 55.3907 211.38 55.4843 211.325 55.5902C211.27 55.696 211.237 55.8117 211.228 55.9306C211.218 56.0495 211.233 56.169 211.27 56.2821L212.128 59.0678C212.128 59.1269 212.19 59.1269 212.219 59.1269L212.986 58.8844C214.21 58.4852 214.639 57.6602 214.21 56.3413C213.994 55.6996 213.719 55.2708 213.352 55.0875C212.86 54.9603 212.342 54.9819 211.862 55.1495V55.1495Z" fill="#67CFF8"/>
<g clip-path="url(#clip2)">
<path fill-rule="evenodd" clip-rule="evenodd" d="M120.549 97.3226L118.544 99.8674L121.011 105.111L124.13 105.143L120.549 97.3226ZM113.111 111.351L112.732 111.587L112.734 111.597L109.324 113.824L110.414 119.884L111.7 119.09L112.043 120.999C112.242 122.105 113.74 123.789 116.273 123.334C117.577 123.099 118.463 122.165 118.887 121.191C119.29 120.263 119.35 119.256 119.176 118.287L119.139 118.079C119.113 117.924 119.084 117.758 119.051 117.595C118.802 116.211 118.678 115.519 118.632 114.496C118.665 113.857 118.805 113.331 119.072 112.945C119.322 112.582 119.731 112.277 120.453 112.148C121.057 112.039 121.474 112.183 121.805 112.449C122.164 112.738 122.544 113.179 122.668 113.871C122.742 114.285 122.811 114.654 122.875 114.994C122.989 115.6 123.085 116.117 123.166 116.639C123.194 116.811 123.224 116.982 123.257 117.154L123.29 117.331L123.663 119.407C123.734 119.801 124.111 120.063 124.505 119.992C124.898 119.921 125.118 119.552 125.047 119.158L124.674 117.082C124.668 117.048 124.661 117.008 124.652 116.964C124.633 116.864 124.61 116.743 124.591 116.62C124.513 116.104 124.39 115.45 124.252 114.702C124.175 114.291 124.093 113.851 124.011 113.391C123.845 112.468 123.345 111.828 122.713 111.32C122.051 110.788 121.207 110.54 120.197 110.721C119.137 110.912 118.374 111.407 117.88 112.121C117.402 112.812 117.226 113.637 117.185 114.421C117.215 115.327 117.464 116.711 117.671 117.865C117.701 118.009 117.727 118.163 117.749 118.295L117.777 118.452C117.923 119.266 117.806 120.045 117.558 120.613C117.33 121.136 116.859 121.8 116.024 121.95C114.279 122.263 113.468 120.98 113.303 120.058L112.986 118.296L114.272 117.502L113.672 114.164L114.472 113.743C114.745 113.599 114.965 113.373 115.1 113.096C115.235 112.819 115.279 112.507 115.224 112.204L114.873 110.25L113.16 111.32L113.16 111.319L113.111 111.351V111.351ZM109.862 111.757L119.7 105.728L117.233 100.484L107.16 103.77C106.51 103.894 105.896 104.166 105.366 104.564C104.836 104.962 104.405 105.476 104.104 106.067C103.803 106.657 103.642 107.309 103.631 107.972C103.621 108.634 103.762 109.29 104.045 109.89C105.067 112.062 107.69 112.779 109.862 111.757L109.862 111.757Z" fill="#B949F6"/>
</g>
<defs>
<clipPath id="clip0">
<rect width="28" height="28" fill="white" transform="translate(148 125.1) rotate(-14.6886)"/>
</clipPath>
<clipPath id="clip1">
<rect width="34" height="34" fill="white" transform="translate(139.793 49.6758) rotate(-16.8981)"/>
</clipPath>
<clipPath id="clip2">
<rect width="30" height="30" fill="white" transform="translate(98.582 98.8906) rotate(-10.1934)"/>
</clipPath>
</defs>
</svg>
