<svg width="366" height="207" viewBox="0 0 366 207" fill="none" xmlns="http://www.w3.org/2000/svg">
<path d="M178.923 133.637C190.701 116.131 210.52 107.765 218.593 91.56C226.666 75.3548 223.046 51.402 211.747 40.6321C200.448 29.8622 177.03 30.8351 159.491 34.0583C141.884 37.2461 130.13 42.6814 120.179 49.0954C110.228 55.5095 102.052 62.994 95.4129 72.9477C88.7741 82.9015 83.6346 95.4664 83.4394 110.338C83.2443 125.209 87.9284 142.426 99.9373 158.078C111.946 173.73 131.313 187.691 145.075 182.125C158.841 176.498 167.094 151.211 178.923 133.637V133.637Z" fill="#ECF2F9"/>
<path d="M102.351 74.6307C100.557 75.009 102.083 71.7295 92.3085 69.1877C91.7714 69.0481 91.2453 68.8778 90.7316 68.679C85.7253 66.7406 81.9045 62.0793 80.7158 56.4425C78.7607 47.1717 84.8057 38.0472 94.2176 36.0623C103.63 34.0775 112.844 39.9838 114.799 49.2546C116.109 55.4645 114.009 61.8929 109.352 65.5856C101.43 71.8673 104.145 74.2524 102.351 74.6307ZM99.1772 59.5801C102.965 58.7813 105.362 55.1437 104.592 51.4962C103.823 47.8486 100.162 45.4887 96.374 46.2874C92.5863 47.0862 90.1896 50.7238 90.9589 54.3713C91.7281 58.0188 95.3896 60.3788 99.1772 59.5801Z" fill="#F93232"/>
<path d="M247.917 124.698C250.135 122.451 233.457 57.453 230.44 56.5067C227.986 55.7379 221.48 56.3884 212.638 57.9557C178.897 63.8996 111.563 83.0323 110.558 86.1669C108.429 92.7022 123.066 149.568 128.034 154.359C131.051 157.227 239.282 133.481 247.917 124.698Z" fill="#027BF3"/>
<path d="M258.504 108.237C260.722 105.96 241.175 28.453 238.159 27.5067C235.704 26.7379 229.199 27.3884 220.357 28.9557C186.616 34.9587 119.282 54.2689 118.276 57.433C116.147 64.0274 133.653 133.343 138.621 138.163C141.638 141.061 249.869 117.07 258.504 108.237Z" fill="white"/>
<path d="M258.056 102.323C257.882 102.323 257.713 102.261 257.58 102.149C257.446 102.036 257.358 101.88 257.329 101.708C254.372 84.1364 239.799 31.032 237.188 28.1873C234.441 27.5249 213.504 29.5653 196.589 34.7492C196.496 34.7779 196.399 34.788 196.302 34.7788C196.205 34.7697 196.111 34.7415 196.025 34.6959C195.896 34.6273 195.791 34.522 195.721 34.3933C195.652 34.2646 195.622 34.1183 195.636 33.9728C195.65 33.8272 195.706 33.6891 195.799 33.5757C195.891 33.4623 196.015 33.3788 196.154 33.3356C213.377 28.0571 234.982 25.9428 237.726 26.8033C238.258 26.9719 238.977 27.2055 242.061 36.7807C243.815 42.2278 245.985 49.6413 248.339 58.217C252.408 73.0501 257.211 92.1739 258.787 101.462C258.819 101.656 258.773 101.854 258.66 102.013C258.546 102.173 258.374 102.281 258.18 102.314L258.056 102.323V102.323Z" fill="#DAE7F2"/>
<path d="M242.979 83.6246C245.02 82.2938 236.858 50.7411 234.463 50.5341C232.511 50.3567 227.07 51.2438 219.618 52.8111C191.2 58.755 133.89 74.2504 132.766 75.936C130.46 79.4254 137.587 107.045 141.283 109.026C143.53 110.209 235.084 88.8291 242.979 83.6246V83.6246Z" fill="#FFCC00"/>
<path d="M246.553 102.727C245.961 104.738 216.656 113.462 215.148 111.983C213.639 110.505 211.954 104.176 212.605 102.136C213.196 100.125 243.98 92.0521 245.488 93.5011C246.967 95.0092 247.144 100.687 246.553 102.727Z" fill="#027BF3"/>
<path d="M207.666 112.899C207.074 114.91 177.769 123.634 176.261 122.155C174.753 120.677 173.067 114.348 173.718 112.308C174.309 110.297 205.093 102.224 206.601 103.673C208.109 105.122 208.316 110.897 207.666 112.899Z" fill="#ECF2F9"/>
<path d="M144.681 88.0303C144.251 88.0293 143.828 87.9109 143.46 87.6878C143.092 87.4647 142.792 87.1454 142.592 86.7643C142.392 86.3832 142.299 85.9547 142.324 85.525C142.35 85.0953 142.492 84.6806 142.735 84.3256C143.062 83.85 143.551 83.5101 144.11 83.3699L225.136 63.1726C225.44 63.089 225.758 63.067 226.071 63.1079C226.384 63.1487 226.685 63.2517 226.958 63.4106C227.23 63.5698 227.468 63.7819 227.657 64.0344C227.847 64.2869 227.983 64.5747 228.06 64.8809C228.136 65.1871 228.15 65.5054 228.102 65.8172C228.053 66.1289 227.943 66.4278 227.777 66.6963C227.611 66.9648 227.394 67.1975 227.136 67.3805C226.879 67.5636 226.588 67.6933 226.28 67.7621L145.255 87.9593C145.067 88.0075 144.874 88.0313 144.681 88.0303V88.0303Z" fill="#E68600"/>
<path d="M130.663 67.5414C129.84 67.5425 129.044 67.2446 128.423 66.7032C127.802 66.1617 127.399 65.4135 127.289 64.5973C127.178 63.781 127.367 62.9523 127.822 62.2652C128.276 61.578 128.964 61.0792 129.758 60.8612L173.879 48.6778C174.31 48.5587 174.759 48.5256 175.203 48.5803C175.646 48.6351 176.074 48.7766 176.463 48.9968C176.851 49.2171 177.192 49.5117 177.467 49.8639C177.742 50.2161 177.944 50.6189 178.063 51.0494C178.242 51.6978 178.225 52.3845 178.014 53.0231C177.803 53.6617 177.407 54.2234 176.877 54.6373C176.525 54.912 176.122 55.1147 175.692 55.2338L131.571 67.4291C131.275 67.5065 130.97 67.5444 130.663 67.5414V67.5414Z" fill="#002669"/>
<path d="M147.935 98.0859C147.504 98.0848 147.082 97.9664 146.714 97.7433C146.346 97.5203 146.046 97.201 145.846 96.8199C145.645 96.4388 145.553 96.0103 145.578 95.5806C145.604 95.1508 145.746 94.7362 145.989 94.3812C146.316 93.9056 146.805 93.5657 147.364 93.4254L195.832 81.3603C196.136 81.2775 196.454 81.2564 196.767 81.2982C197.079 81.3399 197.381 81.4437 197.653 81.6034C198.062 81.8442 198.39 82.2029 198.593 82.6326C198.796 83.0623 198.865 83.5432 198.79 84.0126C198.716 84.482 198.502 84.9181 198.176 85.2642C197.851 85.6102 197.428 85.8502 196.964 85.9527L148.497 98.0149C148.313 98.0619 148.124 98.0859 147.935 98.0859V98.0859Z" fill="#E68600"/>
<path d="M206.189 85.5766C206.024 85.5767 205.865 85.5221 205.735 85.4214C205.606 85.3207 205.513 85.1797 205.473 85.0207L203.492 77.273C203.443 77.0828 203.472 76.8813 203.572 76.7125C203.672 76.5437 203.835 76.4215 204.025 76.3726C204.216 76.3241 204.417 76.3531 204.586 76.4531C204.755 76.5532 204.877 76.7162 204.926 76.9063L206.907 84.654C206.952 84.8425 206.921 85.0411 206.821 85.207C206.721 85.3729 206.56 85.4929 206.372 85.5411C206.313 85.5618 206.251 85.574 206.189 85.5766Z" fill="black"/>
<path d="M251.021 108.909C250.074 107.667 250.281 105.952 251.435 105.094L251.494 105.065C252.647 104.207 254.333 104.503 255.279 105.715C258.325 109.737 258.62 110.151 263.174 116.184C265.718 119.584 265.215 124.257 262.051 126.622L255.279 131.738C254.227 132.508 252.983 132.973 251.684 133.083C250.386 133.192 249.082 132.942 247.916 132.359L234.047 125.735C233.785 125.608 233.574 125.394 233.45 125.131C233.327 124.867 233.297 124.569 233.366 124.286C233.502 123.512 233.877 122.801 234.438 122.251C234.999 121.7 235.717 121.34 236.494 121.219C237.009 121.138 237.535 121.166 238.039 121.299L241.292 122.098L230.616 107.904C229.7 106.662 229.877 104.946 231.03 104.089C232.184 103.231 233.869 103.527 234.815 104.739L241.292 113.315C240.862 112.754 240.669 112.049 240.752 111.347C240.834 110.646 241.187 110.005 241.735 109.56L241.794 109.53C242.948 108.672 244.633 108.968 245.579 110.181L246.112 110.89C245.165 109.648 245.372 107.933 246.526 107.076C247.679 106.218 249.365 106.514 250.311 107.726L251.021 108.909Z" fill="white"/>
<path d="M251.152 133.849C249.922 133.845 248.709 133.563 247.603 133.024L233.737 126.403C233.324 126.205 232.991 125.872 232.793 125.458C232.596 125.044 232.546 124.575 232.652 124.129C232.763 123.525 232.997 122.95 233.338 122.439C233.679 121.928 234.121 121.492 234.636 121.157C235.162 120.822 235.752 120.597 236.368 120.498C236.985 120.399 237.615 120.427 238.22 120.581L239.462 120.876L230.035 108.341C228.867 106.759 229.121 104.585 230.597 103.488C232.072 102.391 234.225 102.761 235.408 104.284L240.166 110.583C240.368 109.941 240.764 109.378 241.299 108.971C241.336 108.943 241.375 108.918 241.417 108.897C241.911 108.558 242.486 108.357 243.084 108.314C243.681 108.27 244.279 108.385 244.818 108.649C244.876 108.221 245.019 107.81 245.237 107.438C245.456 107.067 245.747 106.742 246.092 106.484C246.628 106.101 247.263 105.882 247.92 105.853C248.578 105.823 249.23 105.985 249.797 106.318C249.975 105.592 250.401 104.95 251.001 104.503C251.036 104.475 251.073 104.453 251.113 104.435C252.574 103.397 254.694 103.76 255.865 105.263C257.527 107.457 258.37 108.575 259.523 110.109L263.77 115.743C265.1 117.494 265.716 119.685 265.494 121.873C265.393 122.923 265.074 123.94 264.558 124.86C264.043 125.78 263.341 126.582 262.498 127.216L255.729 132.332C254.41 133.324 252.802 133.857 251.152 133.849V133.849ZM237.076 121.923C236.493 121.92 235.922 122.085 235.432 122.399C235.082 122.628 234.783 122.925 234.553 123.273C234.323 123.622 234.167 124.014 234.095 124.425V124.466C234.067 124.586 234.08 124.713 234.134 124.824C234.188 124.935 234.279 125.024 234.391 125.076L248.248 131.694C249.291 132.221 250.46 132.449 251.625 132.353C252.79 132.257 253.905 131.84 254.848 131.149L261.62 126.034C262.3 125.52 262.865 124.871 263.281 124.127C263.696 123.383 263.952 122.561 264.033 121.713C264.216 119.897 263.703 118.079 262.596 116.627C260.526 113.871 259.322 112.286 258.352 110.994C257.199 109.462 256.356 108.332 254.703 106.162C254.011 105.275 252.772 105.047 251.95 105.659C251.916 105.683 251.881 105.705 251.844 105.724C251.485 106.013 251.253 106.429 251.196 106.886C251.143 107.264 251.196 107.649 251.35 107.998L251.672 108.533C251.744 108.654 251.779 108.793 251.775 108.933C251.77 109.073 251.726 109.209 251.647 109.325C251.568 109.441 251.457 109.532 251.328 109.587C251.2 109.643 251.058 109.66 250.919 109.638C250.733 109.609 250.566 109.51 250.451 109.361C250.289 109.151 250.152 108.924 250.04 108.684L249.718 108.152C249.017 107.282 247.798 107.067 246.985 107.673C246.797 107.814 246.638 107.991 246.519 108.194C246.399 108.397 246.322 108.622 246.29 108.856C246.216 109.405 246.361 109.962 246.695 110.405L246.719 110.438C246.836 110.595 246.887 110.792 246.859 110.986C246.846 111.082 246.813 111.175 246.764 111.258C246.715 111.342 246.649 111.415 246.571 111.473C246.494 111.531 246.405 111.574 246.311 111.598C246.217 111.622 246.119 111.627 246.023 111.613C245.927 111.599 245.834 111.567 245.751 111.517C245.667 111.468 245.594 111.403 245.536 111.325L245.504 111.28L244.998 110.609C244.309 109.722 243.07 109.497 242.248 110.109C242.215 110.133 242.18 110.154 242.144 110.172C241.769 110.507 241.536 110.973 241.492 111.474C241.447 111.975 241.595 112.475 241.905 112.871C241.978 112.969 242.026 113.082 242.044 113.203C242.063 113.323 242.052 113.446 242.011 113.561C241.971 113.675 241.903 113.778 241.813 113.86C241.723 113.943 241.615 114.001 241.497 114.031C241.355 114.067 241.206 114.061 241.068 114.012C240.93 113.964 240.81 113.875 240.722 113.759L234.246 105.183C233.554 104.296 232.315 104.068 231.493 104.68C230.671 105.292 230.549 106.54 231.232 107.463L241.902 121.657C241.993 121.779 242.045 121.926 242.05 122.078C242.054 122.23 242.012 122.38 241.928 122.508C241.844 122.635 241.723 122.733 241.581 122.789C241.44 122.845 241.284 122.855 241.136 122.819L237.883 122.021C237.619 121.955 237.348 121.922 237.076 121.923V121.923Z" fill="#00E6C5"/>
<path d="M206.812 47.3119C208.984 47.3119 210.745 45.5509 210.745 43.3788C210.745 41.2068 208.984 39.4458 206.812 39.4458C204.64 39.4458 202.879 41.2068 202.879 43.3788C202.879 45.5509 204.64 47.3119 206.812 47.3119ZM217.99 45.0644C220.162 45.0644 221.923 43.3034 221.923 41.1314C221.923 38.9594 220.162 37.1984 217.99 37.1984C215.818 37.1984 214.057 38.9594 214.057 41.1314C214.057 43.3034 215.818 45.0644 217.99 45.0644V45.0644ZM229.05 43.4676C231.222 43.4676 232.983 41.7066 232.983 39.5346C232.983 37.3625 231.222 35.6016 229.05 35.6016C226.878 35.6016 225.117 37.3625 225.117 39.5346C225.117 41.7066 226.878 43.4676 229.05 43.4676Z" fill="#ECF2F9"/>
</svg>
