<svg width="366" height="208" viewBox="0 0 366 208" fill="none" xmlns="http://www.w3.org/2000/svg">
<path d="M116.689 68.3473C115.705 68.3473 114.401 67.5955 112.686 66.0415C111.735 65.1768 110.885 64.2586 110.398 63.7327C109.78 64.1249 108.713 64.773 107.557 65.3554C104.856 66.7133 103.18 66.9451 102.289 66.0893C101.398 65.2335 101.561 63.5484 102.803 60.791C103.335 59.6024 103.938 58.5148 104.289 57.8819C103.724 57.4184 102.776 56.6042 101.867 55.6831C99.7395 53.5318 98.9996 52.0163 99.5345 50.908C100.069 49.7996 101.718 49.4371 104.72 49.7729C106.003 49.9155 107.225 50.1532 107.941 50.3048C108.208 49.6273 108.684 48.4774 109.275 47.3334C110.654 44.6591 111.863 43.4705 113.078 43.6339C114.294 43.7974 115.158 45.2504 115.753 48.2129C116.014 49.4787 116.166 50.7178 116.24 51.4428C116.971 51.4874 118.216 51.5858 119.508 51.7938C122.501 52.2751 123.992 53.0682 124.206 54.2835C124.42 55.4988 123.3 56.7587 120.679 58.2534C119.559 58.8922 118.433 59.4182 117.764 59.7123C117.948 60.4225 118.24 61.6378 118.439 62.9185C118.899 65.9137 118.596 67.5747 117.488 68.1482C117.243 68.2814 116.968 68.3499 116.689 68.3473V68.3473ZM110.529 62.0181C110.636 62.0182 110.742 62.0413 110.839 62.0859C110.937 62.1305 111.023 62.1956 111.093 62.2767C113.396 64.9718 116.166 67.1855 116.793 66.8348C117.482 66.4812 117.17 62.9155 116.174 59.4895C116.124 59.3139 116.14 59.1259 116.219 58.9614C116.299 58.7969 116.436 58.6675 116.605 58.598C119.954 57.2252 122.884 55.2908 122.753 54.542C122.622 53.7932 119.125 52.9939 115.559 52.8929C115.376 52.8875 115.202 52.8143 115.069 52.6876C114.937 52.5608 114.857 52.3895 114.843 52.2068C114.576 48.6411 113.631 45.1999 112.9 45.1018H112.867C112.113 45.1018 110.312 48.1297 109.12 51.425C109.059 51.5974 108.935 51.7406 108.774 51.8268C108.612 51.913 108.424 51.9361 108.247 51.8915C104.788 51.0506 101.213 50.8872 100.889 51.5528C100.566 52.2184 102.919 54.9283 105.73 57.1242C105.874 57.2369 105.971 57.3984 106.003 57.5781C106.035 57.7578 106.001 57.9432 105.905 58.0988C104.004 61.1921 102.77 64.4877 103.32 65.0166C103.87 65.5455 107.165 64.1249 110.116 62.1459C110.238 62.0636 110.381 62.019 110.529 62.0181V62.0181Z" fill="#00E6C5"/>
<path d="M144.434 75.7482C162.045 60.9119 168.241 39.0154 184.905 28.2054C201.598 17.4518 228.724 17.7192 242.414 27.9379C256.103 38.1564 258.602 62.7661 257.779 81.5633C256.956 100.361 252.751 113.465 247.218 124.756C241.623 136.077 234.637 145.702 224.615 154.102C214.592 162.502 201.503 169.684 185.062 172.067C168.621 174.45 148.828 172.067 129.606 161.789C110.447 151.511 91.9523 133.367 95.9994 118.145C100.047 102.922 126.825 90.644 144.434 75.7482V75.7482Z" fill="#ECF2F9"/>
<path d="M156.498 47.1475L168.746 63.9895C170.036 65.7622 171.738 67.1943 173.705 68.1623C175.672 69.1304 177.846 69.6053 180.037 69.5461L200.867 69.0112C212.069 68.7141 218.725 81.4021 212.158 90.465L199.916 107.313C198.627 109.086 197.788 111.145 197.472 113.314C197.156 115.483 197.373 117.697 198.103 119.763L205.027 139.404C208.771 149.953 198.757 160.234 188.119 156.758L168.3 150.339C166.216 149.667 163.999 149.51 161.841 149.883C159.683 150.256 157.647 151.146 155.909 152.478L139.388 165.137C130.503 171.942 117.637 165.612 117.637 154.41V133.58C117.636 131.388 117.102 129.229 116.083 127.288C115.063 125.347 113.588 123.683 111.783 122.438L94.6383 110.641C85.3972 104.282 87.4772 90.1084 98.1149 86.6615L117.934 80.2135C120.016 79.5366 121.902 78.3632 123.429 76.7946C124.956 75.226 126.079 73.3094 126.7 71.2101L132.613 51.2421C135.787 40.4915 149.901 38.0846 156.498 47.1475V47.1475Z" fill="#FFCC00"/>
<path d="M150.419 50.957C146.333 54.701 143.222 56.6533 145.534 62.4297C147.845 68.2062 149.991 69.264 149.991 69.264C149.991 69.264 147.78 68.5538 147.596 70.3307C147.412 72.1077 154.213 74.9513 156.367 74.9513C157.696 78.0594 156.367 82.8583 156.367 82.8583C155.302 83.3544 154.369 84.0963 153.646 85.023C152.923 85.9497 152.43 87.0347 152.207 88.189C146.877 90.7831 140.06 94.533 134.379 101.908C128.697 109.283 124.766 123.418 127.143 163.533C141.807 169.654 154.903 150.595 154.903 150.595L188.637 111.325L181.634 73.5874V55.536L150.419 50.957V50.957Z" fill="#FFB200"/>
<path d="M135.719 155.428C135.719 141.091 136.907 116.625 140.072 108.48C143.236 100.335 162.681 90.5621 162.681 90.5621C162.681 90.5621 164.616 84.9788 165.596 82.7443C166.577 80.5098 191.516 78.7715 191.516 78.7715L186.013 97.1527L183.701 121.492V128.659L182.908 139.207L179.856 140.99L160.572 162.046L135.719 155.428V155.428Z" fill="white"/>
<path d="M226.625 67.1796C225.488 67.1778 224.352 67.0784 223.232 66.8825C220.677 66.4443 218.234 65.5072 216.042 64.1248C213.849 62.7424 211.951 60.9416 210.454 58.8254C207.432 54.5516 206.231 49.2522 207.116 44.0931C208.001 38.934 210.899 34.3378 215.173 31.3155C219.447 28.2933 224.747 27.0926 229.906 27.9776C230.1 28.0111 230.273 28.1204 230.387 28.2814C230.5 28.4425 230.545 28.6421 230.512 28.8363C230.478 29.0306 230.369 29.2036 230.208 29.3173C230.047 29.4309 229.847 29.476 229.653 29.4425C226.992 28.9855 224.263 29.1243 221.662 29.8489C219.062 30.5736 216.654 31.8661 214.613 33.6333C212.572 35.4005 210.948 37.5983 209.859 40.0686C208.769 42.5389 208.242 45.22 208.313 47.9188C208.433 52.4502 210.234 56.775 213.366 60.0518C216.498 63.3286 220.737 65.323 225.258 65.6469C229.78 65.9708 234.26 64.6011 237.827 61.8043C241.394 59.0075 243.793 54.9836 244.558 50.5156C245.053 47.4954 244.8 44.3999 243.821 41.5003C243.761 41.3143 243.777 41.1122 243.865 40.9378C243.953 40.7635 244.107 40.631 244.292 40.569C244.477 40.507 244.679 40.5203 244.855 40.6063C245.03 40.6922 245.165 40.8437 245.229 41.0281C246.286 44.1592 246.558 47.5016 246.023 50.7625C245.239 55.3438 242.864 59.5017 239.315 62.5037C235.767 65.5058 231.273 67.1595 226.625 67.1737V67.1796V67.1796Z" fill="#00E6C5"/>
<path d="M227.97 59.0185C227.928 59.023 227.885 59.023 227.843 59.0185L220.373 57.7286C220.201 57.729 220.035 57.6699 219.902 57.5616C219.77 57.4532 219.679 57.3023 219.645 57.1344L215.895 38.5751C215.873 38.4728 215.874 38.3672 215.896 38.2651C215.918 38.163 215.962 38.0667 216.024 37.9826C216.086 37.8985 216.165 37.8284 216.256 37.7769C216.347 37.7254 216.447 37.6936 216.551 37.6837L223.766 36.9854C223.953 36.9659 224.141 37.0187 224.291 37.133C224.44 37.2474 224.541 37.4146 224.571 37.6005L225.938 45.7363L234.092 31.304C234.186 31.1447 234.336 31.026 234.513 30.9711C234.69 30.9162 234.881 30.9289 235.048 31.0069L241.627 34.0259C241.769 34.0903 241.886 34.1975 241.963 34.3322C242.041 34.467 242.074 34.6225 242.058 34.777C242.048 34.8796 242.016 34.979 241.966 35.0688L228.615 58.6412C228.551 58.7556 228.457 58.8509 228.344 58.9172C228.231 58.9835 228.102 59.0185 227.97 59.0185ZM220.997 56.3116L227.581 57.4526L240.272 35.0272L235.048 32.6293L226.2 48.2765C226.124 48.4101 226.009 48.517 225.87 48.5823C225.732 48.6481 225.576 48.6693 225.425 48.643C225.274 48.6166 225.135 48.544 225.027 48.4352C224.919 48.3266 224.847 48.1872 224.821 48.0361L223.219 38.5273L217.514 39.08L220.997 56.3116V56.3116Z" fill="#00E6C5"/>
<path d="M192.367 77.3359C195.006 77.4518 196.257 81.0175 197.068 81.3622C197.879 81.7069 214.302 77.6658 219.306 84.1464C224.31 90.6271 214.748 111.302 214.748 111.302C214.748 111.302 219.829 122.576 220.777 123.782C221.725 124.989 218.783 156.468 214.112 161.285C209.807 165.727 198.176 169.01 198.176 169.01L170.034 171.928L162.68 144.383L170.034 97.9339L192.367 77.3359V77.3359Z" fill="white"/>
<path d="M219.557 84.4922C208.097 96.9722 211.139 108.775 212.878 113.345C214.277 117.02 228.555 136.329 236.706 143.983C237.998 145.202 239.597 146.047 241.332 146.426C243.068 146.804 244.873 146.704 246.556 146.134C248.61 145.432 250.372 144.066 251.563 142.251C252.755 140.437 253.308 138.277 253.137 136.113C253.023 134.677 252.593 133.285 251.878 132.035C241.959 114.801 219.557 84.4922 219.557 84.4922V84.4922Z" fill="white"/>
<path d="M247.806 98.1782C247.806 98.1782 250.965 97.7773 256.031 99.9197C260.655 101.866 262.845 104.552 262.845 104.552L254.159 108.233C254.159 108.233 247.393 101.747 247.426 101.583C247.459 101.42 247.806 98.1782 247.806 98.1782V98.1782Z" fill="#67B0F8"/>
<path d="M245.928 80.7982C246.57 82.4503 248.4 88.0069 248.4 88.0069C249.125 93.8576 250.48 96.6894 251.74 98.1543L249.488 103.622L250.082 103.88L256.952 106.771L257.546 107.03L259.852 101.429C259.986 101.316 264.268 97.6254 265.964 93.6882C267.703 89.7006 268.291 88.2594 269.919 87.1511C271.548 86.0427 274.825 83.0565 274.825 83.0565C274.825 83.0565 276.795 81.3479 275.642 80.0226C274.489 78.6974 267.605 84.875 267.605 84.875C267.605 84.875 266.93 85.4217 266.565 85.2672C266.483 85.2188 266.419 85.1461 266.38 85.0592V85.0325C266.146 84.3371 271.699 75.5536 271.699 75.5536C271.699 75.5536 272.745 73.8064 271.31 73.0487C269.875 72.291 268.799 74.6235 267.661 76.4064L263.798 82.2987C263.798 82.2987 262.943 82.7831 263.014 81.9778C263.085 81.1726 266.689 71.2153 266.689 71.2153C266.689 71.2153 267.483 69.165 265.959 68.7282C264.434 68.2914 264.006 69.9168 262.934 73.0873C262.339 74.891 260.91 79.2768 260.304 80.9408C260.293 80.9906 260.264 81.0348 260.224 81.0656C260.19 81.0929 260.15 81.1107 260.107 81.1172C260.064 81.1237 260.02 81.1186 259.98 81.1024C259.94 81.0858 259.905 81.0588 259.879 81.0241C259.853 80.9894 259.836 80.9483 259.831 80.9051C259.831 80.8784 259.814 80.8457 259.831 80.819L261.178 71.1321C261.178 71.1321 261.305 69.3195 260.108 69.0848C258.468 68.7876 258.114 69.8841 257.374 73.8391C257.003 75.8864 256.596 78.1268 256.272 79.7819L256.156 80.3762C255.945 81.6094 255.787 82.4265 255.787 82.4265C255.787 82.4265 254.958 85.2315 253.274 86.0338C253.274 86.0338 250.599 81.0478 248.834 79.7938C247.069 78.5399 245.233 78.9975 245.928 80.7982V80.7982Z" fill="#FFD1BF"/>
<path d="M258.645 95.377H258.52C258.329 95.3408 258.159 95.2308 258.048 95.0708C257.937 94.9107 257.893 94.7133 257.926 94.5212C258.538 90.8664 256.52 88.7269 254.723 87.574C254.639 87.5221 254.566 87.454 254.509 87.3738C254.452 87.2935 254.411 87.2027 254.389 87.1066C254.368 87.0105 254.365 86.911 254.382 86.8139C254.399 86.7169 254.435 86.6241 254.489 86.5412C254.542 86.4582 254.611 86.3867 254.692 86.3307C254.773 86.2747 254.865 86.2355 254.961 86.2152C255.058 86.1949 255.157 86.1939 255.254 86.2125C255.351 86.231 255.443 86.2686 255.525 86.323C258.6 88.2931 259.982 91.2913 259.388 94.7678C259.357 94.9411 259.265 95.0976 259.129 95.2092C258.992 95.3209 258.821 95.3803 258.645 95.377Z" fill="#F4977A"/>
<path d="M246.949 140.058C251.406 130.665 261.164 108.822 262.911 104.923C262.937 104.865 262.946 104.8 262.939 104.736C262.931 104.672 262.906 104.612 262.867 104.561C262.828 104.51 262.776 104.47 262.716 104.446C262.657 104.422 262.592 104.414 262.528 104.424C253.635 105.829 249.326 100.217 248.144 98.318C248.088 98.2386 248.004 98.1842 247.909 98.1664C247.814 98.1487 247.715 98.1689 247.635 98.2229C247.582 98.2588 247.539 98.3079 247.511 98.3655C245.657 102.668 237.126 121.106 232.264 134.023C231.574 135.836 231.59 137.843 232.308 139.645C233.027 141.448 234.396 142.915 236.144 143.756C237.303 144.314 238.581 144.574 239.865 144.515L240.296 144.485C241.702 144.419 243.064 143.972 244.236 143.193C245.408 142.413 246.345 141.329 246.949 140.058V140.058Z" fill="white"/>
<path d="M239.437 145.242C238.837 145.244 238.239 145.18 237.654 145.052C237.555 145.034 237.461 144.997 237.377 144.942C237.294 144.888 237.222 144.817 237.166 144.733C237.082 144.608 237.039 144.46 237.041 144.309C237.043 144.159 237.091 144.012 237.178 143.889C237.266 143.767 237.389 143.673 237.53 143.622C237.672 143.571 237.826 143.563 237.972 143.601C238.58 143.732 239.202 143.781 239.823 143.747L240.242 143.718C241.513 143.667 242.746 143.268 243.805 142.564C244.864 141.859 245.709 140.877 246.247 139.724C249.48 132.911 255.583 119.367 259.232 111.276C257.087 111.421 252.716 111.1 247.293 107.392C247.171 107.309 247.077 107.192 247.022 107.056C246.967 106.919 246.953 106.77 246.983 106.626C247.014 106.482 247.086 106.35 247.191 106.247C247.296 106.144 247.43 106.075 247.575 106.048C247.67 106.03 247.769 106.031 247.864 106.051C247.96 106.071 248.051 106.11 248.131 106.165C251.789 108.667 254.897 109.475 256.858 109.73C258.977 109.986 260.255 109.653 260.266 109.647C260.403 109.611 260.546 109.614 260.681 109.656C260.816 109.698 260.936 109.777 261.027 109.885C261.116 109.986 261.176 110.11 261.199 110.244C261.222 110.377 261.208 110.514 261.158 110.64L260.6 111.885C256.948 119.979 250.841 133.529 247.602 140.354C246.952 141.75 245.93 142.94 244.649 143.794C243.367 144.649 241.876 145.134 240.337 145.197L239.927 145.227C239.764 145.239 239.6 145.242 239.437 145.242V145.242ZM231.797 138.063C231.635 138.063 231.477 138.009 231.347 137.91C231.218 137.812 231.125 137.673 231.081 137.516C229.596 132.064 233.485 120.327 237.473 118.202C237.602 118.132 237.75 118.103 237.896 118.117C238.042 118.132 238.181 118.189 238.295 118.283C238.389 118.36 238.463 118.46 238.51 118.572C238.557 118.685 238.575 118.808 238.563 118.93C238.551 119.051 238.509 119.168 238.442 119.27C238.374 119.371 238.282 119.454 238.174 119.512C235.033 121.191 231.126 132.007 232.528 137.136C232.558 137.246 232.561 137.362 232.539 137.473C232.516 137.585 232.468 137.69 232.399 137.78C232.329 137.871 232.24 137.944 232.138 137.995C232.036 138.045 231.923 138.072 231.809 138.072L231.797 138.063Z" fill="#DAE7F2"/>
<path d="M188.611 41.5664C188.611 41.5664 193.485 50.659 190.602 52.8281C187.155 55.443 186.294 51.7584 186.294 51.7584L182.906 42.7253L188.611 41.5664Z" fill="#002669"/>
<path d="M190.99 54.1357C189.207 52.5014 189.415 51.1048 189.266 49.3517C189.115 47.6484 188.714 45.9766 188.078 44.3894C186.425 40.3363 183.259 37.0863 179.25 35.3288C175.241 33.5712 170.706 33.4442 166.605 34.9747C162.504 36.5053 159.161 39.573 157.284 43.5273C155.407 47.4816 155.144 52.0115 156.551 56.1563C156.985 57.3786 157.542 58.5535 158.215 59.6625C156.67 60.346 155.036 61.2671 154.768 62.9608C154.352 65.5757 155.838 68.25 158.69 69.7951C160.146 70.5974 163.831 72.5288 166.208 70.0031C167.694 72.9745 168.942 77.0751 169.417 81.77L188.761 79.8385C188.636 79.1712 188.557 78.4961 188.524 77.818C188.88 77.7288 189.237 77.6397 189.593 77.5208C193.456 76.1837 194.556 74.6683 194.199 71.6671C194.199 71.6671 193.397 60.4054 193.189 58.8008C192.832 56.394 191.822 54.8785 190.99 54.1357V54.1357Z" fill="#FFD1BF"/>
<path d="M164.604 68.4275C164.471 68.4276 164.34 68.3918 164.226 68.3238C164.111 68.2558 164.017 68.1582 163.953 68.0412C163.927 67.9966 161.442 63.5543 158.364 63.5543C158.192 63.5489 158.02 63.5794 157.86 63.6438C157.7 63.7083 157.555 63.8053 157.434 63.9287C157.365 63.9995 157.283 64.0561 157.193 64.0951C157.102 64.1341 157.005 64.1548 156.906 64.156C156.808 64.1572 156.71 64.1386 156.618 64.1013C156.527 64.0641 156.444 64.0089 156.374 63.9391C156.305 63.8694 156.249 63.7866 156.212 63.6955C156.174 63.6042 156.156 63.5064 156.156 63.4078C156.157 63.3092 156.177 63.2118 156.216 63.1211C156.255 63.0304 156.311 62.9481 156.382 62.8798C156.641 62.6184 156.95 62.4119 157.29 62.2725C157.631 62.1331 157.996 62.0638 158.364 62.0686C162.322 62.0686 165.136 67.12 165.255 67.3251C165.316 67.4384 165.347 67.5656 165.344 67.6944C165.342 67.8232 165.306 67.9491 165.241 68.0601C165.175 68.171 165.082 68.2631 164.971 68.3275C164.859 68.3918 164.733 68.4263 164.604 68.4275V68.4275Z" fill="#F4977A"/>
<path d="M160.322 68.5644C160.205 68.5639 160.09 68.5365 159.986 68.4842C158.744 67.8513 158.132 65.9793 158.723 64.6213C159.142 63.6734 160.266 62.9157 162.161 63.6259C162.323 63.686 162.458 63.8002 162.544 63.9492C162.631 64.0981 162.663 64.2725 162.635 64.4423C162.607 64.6122 162.521 64.7671 162.391 64.8804C162.261 64.9937 162.096 65.0584 161.924 65.0635C161.827 65.0667 161.73 65.0508 161.638 65.0165C160.803 64.7045 160.283 64.7729 160.084 65.2216C159.814 65.8337 160.126 66.8766 160.661 67.147C160.81 67.2224 160.929 67.3461 161 67.498C161.07 67.6498 161.086 67.8209 161.047 67.9835C161.008 68.1461 160.915 68.2908 160.783 68.3941C160.652 68.4973 160.489 68.553 160.322 68.5525V68.5644V68.5644ZM184.512 78.6494C182.111 78.6494 178.968 78.5336 175.952 77.6362C172.936 76.7388 170.933 75.4581 169.744 73.6129C169.66 73.4894 169.616 73.3435 169.616 73.1941C169.616 73.0448 169.661 72.8989 169.745 72.7755C169.801 72.6938 169.872 72.624 169.956 72.5702C170.039 72.5165 170.132 72.4799 170.23 72.4626C170.377 72.437 170.528 72.4563 170.664 72.5178C170.8 72.5793 170.914 72.6803 170.992 72.8076C171.613 73.7703 172.844 75.1699 176.374 76.2129C179.208 77.0538 182.212 77.1637 184.512 77.1637C184.709 77.1637 184.898 77.242 185.038 77.3813C185.177 77.5206 185.255 77.7096 185.255 77.9066C185.255 78.1036 185.177 78.2925 185.038 78.4319C184.898 78.5712 184.709 78.6494 184.512 78.6494V78.6494ZM185.552 64.3569C185.37 64.3583 185.193 64.2928 185.056 64.1726C184.919 64.0525 184.831 63.8862 184.808 63.7052C184.786 63.5242 184.831 63.3413 184.934 63.1913C185.038 63.0413 185.194 62.9348 185.371 62.892C187.183 62.4403 187.79 61.3736 187.977 60.5624C187.991 60.4966 187.987 60.4282 187.963 60.365C187.94 60.3018 187.9 60.2466 187.846 60.2058C185.837 58.5507 183.324 56.2152 182.738 54.4917C182.538 53.8165 182.503 53.1031 182.637 52.4117C182.661 52.2364 182.685 52.0522 182.702 51.8501C182.721 51.6531 182.817 51.4715 182.969 51.3453C183.122 51.2191 183.318 51.1586 183.515 51.1771C183.712 51.1956 183.894 51.2917 184.02 51.4441C184.146 51.5965 184.207 51.7928 184.188 51.9898C184.167 52.2067 184.144 52.4058 184.12 52.5841C184.043 53.1784 183.998 53.5557 184.153 54.0193C184.509 55.0712 186.233 56.958 188.794 59.0707C189.059 59.2865 189.259 59.5715 189.372 59.8941C189.484 60.2167 189.506 60.5642 189.433 60.8981C189.198 61.9054 188.411 63.6764 185.736 64.345C185.676 64.3565 185.614 64.3605 185.552 64.3569Z" fill="#F4977A"/>
<path d="M176.437 58.8899C177.073 58.6721 177.34 57.7655 177.032 56.8649C176.724 55.9642 175.959 55.4107 175.322 55.6282C174.685 55.8457 174.419 56.7523 174.727 57.6529C175.034 58.5535 175.8 59.1074 176.437 58.8899ZM187.316 55.2125C187.89 55.0161 188.132 54.2022 187.856 53.3948C187.58 52.5872 186.891 52.0919 186.316 52.2883C185.742 52.4847 185.499 53.2986 185.776 54.1059C186.052 54.9135 186.741 55.4089 187.316 55.2125ZM177.618 50.304C177.648 50.8091 177.232 51.0168 176.756 51.2248C175.033 51.8785 174.023 52.2354 173.072 53.1268C172.312 53.8617 171.661 54.7023 171.141 55.6228C171.141 55.6228 171.913 53.424 172.389 52.6217C173.161 51.344 174.32 50.3337 177.44 49.3828L177.618 50.304Z" fill="#002669"/>
<path d="M171.142 56.0661C171.079 56.0652 171.018 56.0522 170.96 56.0278C170.858 55.9817 170.777 55.8992 170.732 55.7964C170.688 55.6935 170.683 55.5778 170.72 55.4718C170.752 55.3797 171.513 53.2227 172.006 52.3907C172.817 51.0506 174.027 49.9539 177.31 48.9525C177.4 48.9257 177.497 48.9278 177.585 48.9584C177.674 48.989 177.751 49.0467 177.806 49.1234C177.842 49.1745 177.866 49.233 177.878 49.2945L178.056 50.2153V50.2751C178.104 51.116 177.367 51.4369 176.927 51.63L176.671 51.7281C175.135 52.3075 174.211 52.6579 173.367 53.4483C172.643 54.1487 172.022 54.9493 171.525 55.8257C171.488 55.8962 171.433 55.9557 171.366 55.998C171.298 56.0402 171.221 56.0637 171.142 56.0661V56.0661ZM177.099 49.9542C174.544 50.7951 173.516 51.6803 172.847 52.7232C173.795 51.8675 174.826 51.4752 176.362 50.8928L176.6 50.804C177.07 50.599 177.174 50.5068 177.174 50.3494L177.099 49.9542V49.9542ZM185.09 47.0924L185.387 47.8652C185.625 48.311 186.1 48.4001 186.635 48.311C187.883 48.103 188.834 48.2218 189.636 48.6081L189.577 47.9541C188.932 47.5009 188.199 47.1898 187.426 47.0412C186.652 46.8927 185.856 46.9101 185.09 47.0924Z" fill="#002669"/>
<path d="M189.622 49.0548C189.555 49.0548 189.489 49.0397 189.429 49.0103C188.677 48.6477 187.806 48.5645 186.695 48.7517C185.584 48.9389 185.156 48.4041 184.98 48.0743C184.971 48.0583 184.963 48.0413 184.957 48.0237L184.66 47.2512C184.636 47.1924 184.626 47.1293 184.63 47.0662C184.633 47.003 184.65 46.9414 184.68 46.8857C184.71 46.8287 184.753 46.779 184.804 46.74C184.855 46.7009 184.914 46.6736 184.977 46.6599C185.804 46.4661 186.663 46.4483 187.497 46.6075C188.332 46.7667 189.123 47.0993 189.821 47.584C189.876 47.6212 189.921 47.6701 189.955 47.7271C189.988 47.7842 190.008 47.8479 190.014 47.9138L190.073 48.5675C190.081 48.6462 190.068 48.7255 190.034 48.7971C190.001 48.8687 189.949 48.93 189.883 48.9746C189.807 49.0288 189.715 49.0569 189.622 49.0548V49.0548ZM185.777 47.6761C185.833 47.7741 185.982 47.9732 186.546 47.8722C187.142 47.7635 187.75 47.7385 188.353 47.7979C187.514 47.4273 186.587 47.2997 185.679 47.4295L185.777 47.6761Z" fill="#002669"/>
<path d="M169.398 81.7396C169.586 84.6456 188.651 90.7073 189.572 90.7876C190.493 90.8678 196.085 85.8877 193.758 79.826C191.432 73.7642 179.303 77.8767 179.303 77.8767L169.398 81.7396Z" fill="#FFD1BF"/>
<path d="M186.801 28.6292C186.801 28.6292 185.197 26.8761 179.165 26.579C174.143 26.4601 166.387 27.2327 154.353 34.483C152.57 35.5527 154.71 40.6932 155.096 42.2087C155.096 42.2087 149.985 44.5264 150.52 48.419C151.471 55.2235 155.007 62.2658 155.007 62.2658C155.007 62.2658 157.205 59.027 161.365 61.7607C162.316 62.3847 164.961 64.9995 165.823 65.891C165.9 65.9722 165.997 66.0326 166.104 66.0667C166.211 66.1008 166.325 66.1074 166.436 66.086C166.546 66.0645 166.649 66.0157 166.736 65.944C166.822 65.8723 166.889 65.78 166.931 65.6755C166.987 65.5362 166.994 65.3817 166.952 65.2372L166.714 64.7024C166.485 64.2199 166.287 63.7237 166.12 63.2167C165.283 60.5983 165.201 57.7973 165.882 55.1344C166.328 53.2921 164.664 50.5881 162.317 46.9333C165.466 48.9538 166.506 45.7744 170.28 43.7241C173.624 41.8649 177.231 40.5225 180.977 39.7424C182.537 39.4124 184.165 39.7153 185.502 40.5844C186.839 41.4536 187.776 42.8179 188.108 44.3778C189.249 37.8407 191.347 31.672 186.801 28.6292V28.6292Z" fill="#002669"/>
<path d="M176.488 70.9534C179.103 71.4883 180.5 68.3683 181.837 67.358C186.502 63.7923 191.583 62.5146 193.841 63.822C195.565 64.8026 194.881 68.3683 195.238 69.8243C195.892 72.4094 199.339 76.0046 194.644 79.6C190.692 82.6309 180.856 82.2152 176.845 81.0563C173.784 80.1649 166.801 68.9029 165.791 65.9314C164.781 62.96 164.87 60.3451 166.088 63.2571C167.366 66.1097 173.131 70.2284 176.488 70.9534Z" fill="#002669"/>
<path d="M193.336 66.7948C193.514 64.5663 184.452 68.2211 183.738 70.7468C183.382 71.9948 185.551 75.7983 186.324 76.1251C187.096 76.452 189.652 76.3034 190.038 75.5606C190.424 74.8177 189.83 73.54 190.692 72.9457C192.088 71.9948 193.039 74.3423 193.396 74.0748C194.465 73.3023 192.89 71.876 193.336 66.7948V66.7948Z" fill="#FFD1BF"/>
<path d="M192.017 69.1585L191.904 69.2714C189.527 70.8195 185.222 71.3663 183.703 71.0543C183.701 70.9538 183.714 70.8536 183.742 70.7571C184.336 68.3622 192.243 64.945 192.062 67.0577C192.017 67.8511 192.017 68.5375 192.017 69.1585Z" fill="white"/>
<path d="M184.722 71.9382C184.575 71.9423 184.43 71.9029 184.306 71.8249C184.181 71.7468 184.083 71.6337 184.022 71.4998C183.962 71.3658 183.943 71.217 183.967 71.0722C183.991 70.9273 184.058 70.7929 184.158 70.6858C184.225 70.6146 184.306 70.5574 184.395 70.5174C184.484 70.4774 184.58 70.4553 184.677 70.4525C188.243 70.2386 189.859 69.3769 191.149 68.6875L191.473 68.5122C191.646 68.4278 191.846 68.4144 192.03 68.4747C192.213 68.5349 192.366 68.6642 192.456 68.8352C192.546 69.0062 192.566 69.2054 192.512 69.3908C192.457 69.5761 192.333 69.7331 192.165 69.8285L191.853 69.9949C190.51 70.717 188.671 71.7035 184.766 71.9353L184.722 71.9382V71.9382Z" fill="#F4977A"/>
<path d="M143.755 145.456C147.77 143.174 161.126 138.152 176.441 138.607C186.906 138.919 191.991 141.145 192.377 150.623C192.763 160.102 136.844 159.493 136.844 157.921C136.844 156.349 138 148.728 143.755 145.456Z" fill="white"/>
<path d="M212.562 151.123C209.769 149.637 126.747 150.677 112.573 157.393C107.611 160.334 113.316 178.965 116.02 179.975C123.33 182.234 210.809 173.884 213.453 171.18C215.83 168.535 214.582 152.49 212.562 151.123V151.123Z" fill="#027BF3"/>
<path d="M122.025 164.464C122.025 164.464 122.174 159.116 123.63 158.848C125.086 158.581 127.148 163.531 127.148 163.531C127.148 163.531 132.318 162.045 133.002 163.323C133.685 164.601 129.614 168.077 129.614 168.077C129.614 168.077 132.615 172.505 131.605 173.574C130.595 174.644 126.019 171.822 126.019 171.822C126.019 171.822 122.72 176.041 121.413 175.417C120.106 174.793 121.354 169.593 121.354 169.593C121.354 169.593 116.302 167.78 116.51 166.324C116.718 164.868 122.025 164.464 122.025 164.464V164.464ZM142.896 161.968C142.896 161.968 143.461 156.65 144.917 156.471C146.373 156.293 148.037 161.404 148.037 161.404C148.037 161.404 153.296 160.304 153.89 161.642C154.485 162.979 150.146 166.128 150.146 166.128C150.146 166.128 152.821 170.764 151.751 171.744C150.681 172.725 146.313 169.575 146.313 169.575C146.313 169.575 142.718 173.557 141.44 172.844C140.163 172.131 141.797 167.02 141.797 167.02C141.797 167.02 136.894 164.821 137.221 163.395C137.548 161.968 142.896 161.968 142.896 161.968V161.968ZM163.15 160.453C163.15 160.453 163.833 155.52 165.2 155.431C166.567 155.342 167.963 160.126 167.963 160.126C167.963 160.126 172.866 159.264 173.371 160.542C173.877 161.82 169.746 164.613 169.746 164.613C169.746 164.613 172.064 169.01 171.054 169.902C170.043 170.793 166.062 167.733 166.062 167.733C166.062 167.733 162.585 171.299 161.426 170.615C160.267 169.932 161.961 165.207 161.961 165.207C161.961 165.207 157.474 163.008 157.801 161.701C158.187 160.304 163.15 160.453 163.15 160.453V160.453ZM182.761 159.651C182.761 159.651 183.563 155.104 184.811 155.075C186.059 155.045 187.218 159.502 187.218 159.502C187.218 159.502 191.794 158.848 192.21 160.037C192.626 161.226 188.734 163.662 188.734 163.662C188.734 163.662 190.754 167.792 189.774 168.594C188.793 169.397 185.257 166.426 185.257 166.426C185.257 166.426 181.929 169.605 180.889 168.922C179.849 168.238 181.543 163.959 181.543 163.959C181.543 163.959 177.472 161.79 177.829 160.602C178.185 159.354 182.761 159.651 182.761 159.651V159.651ZM200.768 159.074C200.768 159.074 201.6 154.944 202.759 154.914C203.918 154.885 204.839 159.044 204.839 159.044C204.839 159.044 209.058 158.569 209.415 159.669C209.771 160.768 206.146 162.907 206.146 162.907C206.146 162.907 207.899 166.74 206.978 167.454C206.057 168.167 202.878 165.344 202.878 165.344C202.878 165.344 199.758 168.197 198.807 167.543C197.856 166.889 199.55 162.996 199.55 162.996C199.55 162.996 195.865 160.917 196.222 159.817C196.578 158.718 200.768 159.074 200.768 159.074V159.074Z" fill="#FFCC00"/>
<path opacity="0.2" d="M200.079 161.089C199.681 161.291 199.562 161.247 198.87 161.006C198.861 160.971 198.85 160.937 198.834 160.905C198.842 160.938 198.852 160.971 198.864 161.003C198.965 161.348 199.161 162.584 197.744 162.824C195.566 163.19 194.422 159.966 193.988 159.357C194.333 160.248 195.022 162.105 193.215 162.278C191.15 162.474 189.911 160.278 189.561 159.847C189.858 160.269 190.402 161.615 188.91 161.731C187.576 161.835 186.901 161.472 185.716 160.302C184.322 158.929 183.933 155.547 181.799 153.592C180.168 152.106 179.651 150.778 176.902 150.864C188.931 150.463 193.394 152.273 199.102 154.852C199.657 155.997 200.147 157.173 200.57 158.373C201.108 160.097 200.424 160.914 200.079 161.089V161.089Z" fill="#002669"/>
<path d="M194.256 142.875C196.467 142.875 199.495 146.004 202.032 148.58C202.817 149.376 204.386 153.138 204.677 154.089C205.209 155.81 204.525 156.626 204.181 156.802C203.782 157.004 203.661 156.96 202.965 156.716C202.742 156.122 203.765 158.219 201.851 158.54C199.673 158.909 198.529 155.682 198.095 155.073C198.44 155.964 199.129 157.821 197.323 157.993C195.243 158.189 194.018 155.997 193.668 155.563C193.965 155.985 194.509 157.346 193.017 157.447C191.683 157.551 191.008 157.191 189.823 156.017C188.429 154.645 186.405 151.263 184.082 150.981C181.292 150.645 171.305 151.017 171.305 151.017C171.305 151.017 184.091 142.872 194.256 142.875V142.875Z" fill="#FFD1BF"/>
<path d="M184.599 105.943C184.505 105.942 184.412 105.928 184.323 105.901C183.306 105.63 166.931 96.455 163.101 92.7644C162.959 92.6272 162.877 92.4393 162.874 92.2421C162.872 92.1444 162.889 92.0473 162.925 91.9564C162.961 91.8655 163.015 91.7826 163.083 91.7126C163.15 91.6421 163.231 91.5857 163.321 91.5468C163.411 91.5078 163.507 91.487 163.605 91.4855C163.802 91.4825 163.993 91.5577 164.135 91.6947C167.567 95.0049 181.785 103.04 184.379 104.314C185.137 103.191 186.961 99.0876 188.09 96.5441C190.256 91.662 190.304 91.6472 190.765 91.5135C190.871 91.484 190.982 91.4775 191.092 91.4944C191.201 91.5113 191.305 91.5512 191.397 91.6115C191.513 91.6888 191.808 91.9384 193.13 93.0705C194.737 94.4492 198.131 97.3583 199.631 98.4963C199.914 96.1192 199.905 89.0828 197.967 85.3745C197.885 85.2009 197.874 85.0024 197.935 84.8205C197.996 84.6386 198.125 84.4874 198.296 84.3986C198.466 84.3099 198.664 84.2905 198.848 84.3444C199.032 84.3984 199.188 84.5215 199.284 84.6881C201.661 89.2552 201.494 98.7875 200.769 99.9702C200.698 100.096 200.594 100.201 200.469 100.275C200.344 100.348 200.201 100.388 200.056 100.389C199.619 100.389 199.376 100.389 192.155 94.1996L191.157 93.3468C190.744 94.1937 190.057 95.7388 189.433 97.1473C186.105 104.671 185.386 105.943 184.599 105.943V105.943ZM220.779 124.529H220.746C220.649 124.527 220.553 124.505 220.464 124.466C220.375 124.426 220.294 124.369 220.227 124.298C220.16 124.228 220.107 124.145 220.072 124.054C220.038 123.963 220.021 123.865 220.024 123.768C220.024 123.578 220.491 104.769 218.063 96.9895C218.031 96.8955 218.019 96.7961 218.026 96.6972C218.033 96.5982 218.06 96.5017 218.105 96.4133C218.15 96.3249 218.212 96.2464 218.288 96.1824C218.364 96.1185 218.452 96.0703 218.547 96.0408C218.641 96.0113 218.741 96.001 218.84 96.0106C218.939 96.0202 219.034 96.0494 219.122 96.0966C219.209 96.1438 219.286 96.2079 219.348 96.2853C219.41 96.3627 219.456 96.4517 219.483 96.5471C221.982 104.57 221.531 123.022 221.51 123.807C221.505 123.998 221.426 124.18 221.289 124.314C221.153 124.449 220.97 124.526 220.779 124.529V124.529ZM142.547 150.502C141.925 150.531 141.304 150.419 140.731 150.175C140.492 150.074 140.293 149.895 140.167 149.668C140.04 149.441 139.993 149.178 140.033 148.921C140.331 147.204 145.355 143.086 155.591 140.144C156.5 138.196 157.198 136.155 157.671 134.058C158.499 130.544 158.845 126.933 158.7 123.325C158.194 114.75 153.075 108.147 146.256 107.28C146.109 107.261 145.97 107.199 145.859 107.102C145.747 107.005 145.666 106.877 145.627 106.735C145.595 106.616 145.592 106.491 145.619 106.371C145.647 106.251 145.703 106.14 145.784 106.047C145.865 105.954 145.967 105.882 146.082 105.838C146.196 105.794 146.32 105.779 146.442 105.794C153.984 106.763 159.636 113.936 160.185 123.236C160.336 126.987 159.977 130.74 159.119 134.394C158.708 136.184 158.149 137.937 157.449 139.635C161.24 138.677 165.094 137.982 168.981 137.555C175.815 136.78 184.512 136.534 186.999 139.772C187.058 139.85 187.101 139.939 187.125 140.034C187.149 140.128 187.155 140.227 187.141 140.323C187.127 140.42 187.094 140.513 187.045 140.597C186.995 140.681 186.929 140.754 186.851 140.812C186.773 140.871 186.684 140.914 186.59 140.938C186.495 140.962 186.397 140.967 186.3 140.954C186.204 140.94 186.111 140.907 186.027 140.857C185.943 140.808 185.869 140.742 185.811 140.664C185.059 139.686 181.948 137.571 169.139 139.021C164.915 139.474 160.733 140.256 156.631 141.359C155.894 142.833 154.943 144.189 153.809 145.385C150.353 148.948 145.438 150.499 142.547 150.502ZM141.656 148.945C143.076 149.31 148.719 148.514 152.766 144.36C153.465 143.637 154.083 142.84 154.608 141.983C146.163 144.61 142.419 147.881 141.641 148.945H141.656V148.945Z" fill="#DAE7F2"/>
<path d="M197.07 140.209H197.019C196.823 140.196 196.639 140.105 196.509 139.957C196.38 139.809 196.314 139.615 196.327 139.418C196.327 139.353 196.746 132.917 196.482 125.007C196.137 114.589 194.776 106.361 192.55 101.209C192.511 101.119 192.49 101.023 192.488 100.925C192.487 100.828 192.504 100.731 192.54 100.64C192.585 100.526 192.657 100.425 192.75 100.346C192.843 100.266 192.954 100.211 193.074 100.185C193.193 100.159 193.317 100.163 193.435 100.196C193.553 100.229 193.66 100.291 193.749 100.376C193.819 100.444 193.875 100.525 193.914 100.615C199.456 113.445 197.878 138.453 197.81 139.51C197.799 139.699 197.716 139.876 197.578 140.006C197.441 140.136 197.259 140.208 197.07 140.209V140.209Z" fill="#DAE7F2"/>
</svg>
