<svg width="1535" height="314" fill="none" xmlns="http://www.w3.org/2000/svg">
<path d="M0 312H268.972C283.596 312 298.176 310.396 312.45 307.217L399.711 287.783C413.985 284.604 428.564 283 443.188 283H604.959C617.967 283 630.944 281.731 643.706 279.211L715.666 265L883.862 247.19C924.971 242.837 963.721 225.853 994.781 198.574L1080.26 123.5L1144.38 78.5174C1163.26 65.2723 1184.29 55.3923 1206.53 49.3144L1302.61 23.0667C1314.94 19.6967 1327.57 17.5174 1340.32 16.5589L1534 2" stroke="#8B5AF3" stroke-width="4"/>
<path d="M0 312H290.974L421.186 299.371H624.518L715.666 291.532L914.881 282.346C936.186 281.364 957.196 276.98 977.115 269.361L1080.26 229.911L1155.83 206.822C1167.2 203.351 1178.85 200.899 1190.64 199.495L1321.15 183.968L1534 177" stroke="#00E6C5" stroke-width="4"/>
</svg>
