<svg width="15" height="16" viewBox="0 0 15 16" fill="none" xmlns="http://www.w3.org/2000/svg">
<path fill-rule="evenodd" clip-rule="evenodd" d="M6.82172 0.265197C7.20479 -0.0883988 7.79522 -0.0883988 8.17828 0.265197L14.6783 6.2652C15.0841 6.6398 15.1094 7.27246 14.7348 7.67828C14.3602 8.0841 13.7275 8.10941 13.3217 7.7348L7.5 2.36091L1.67829 7.7348C1.27246 8.10941 0.639805 8.0841 0.265202 7.67828C-0.109402 7.27246 -0.0840959 6.6398 0.321725 6.2652L6.82172 0.265197ZM2.00001 10.5C2.55229 10.5 3.00001 10.9477 3.00001 11.5V14H12V11.5C12 10.9477 12.4477 10.5 13 10.5C13.5523 10.5 14 10.9477 14 11.5V15C14 15.5523 13.5523 16 13 16H2.00001C1.44772 16 1.00001 15.5523 1.00001 15V11.5C1.00001 10.9477 1.44772 10.5 2.00001 10.5Z" fill="white"/>
</svg>
