<svg width="46" height="46" viewBox="0 0 46 46" fill="none" xmlns="http://www.w3.org/2000/svg">
<circle cx="23" cy="23" r="23" fill="white"/>
<path d="M23.0971 10C20.9022 10.0006 18.7567 10.6519 16.9318 11.8716C15.1069 13.0913 13.6847 14.8247 12.8448 16.8526C12.0049 18.8805 11.7851 21.1119 12.2131 23.2647C12.6412 25.4175 13.6979 27.3951 15.2497 28.9474C17.2528 30.9609 21.9871 33.8624 22.2659 36.9188C22.3072 37.3731 22.6376 37.75 23.0971 37.75C23.5566 37.75 23.887 37.3731 23.9283 36.9188C24.2071 33.8676 28.9362 30.9558 30.9497 28.9474C32.5018 27.3948 33.5586 25.4167 33.9865 23.2634C34.4144 21.1102 34.1942 18.8783 33.3536 16.8502C32.5131 14.8221 31.09 13.0888 29.2644 11.8695C27.4387 10.6501 25.2925 9.99955 23.0971 10V10Z" fill="#FF4433"/>
<path d="M23.0967 24.9727C24.1236 24.9727 25.1085 24.5647 25.8347 23.8386C26.5608 23.1124 26.9688 22.1276 26.9688 21.1006C26.9688 20.0737 26.5608 19.0888 25.8347 18.3626C25.1085 17.6365 24.1236 17.2285 23.0967 17.2285C22.0698 17.2285 21.0849 17.6365 20.3587 18.3626C19.6326 19.0888 19.2246 20.0737 19.2246 21.1006C19.2246 22.1276 19.6326 23.1124 20.3587 23.8386C21.0849 24.5647 22.0698 24.9727 23.0967 24.9727V24.9727Z" fill="white"/>
</svg>
