<svg width="16" height="16" viewBox="0 0 16 16" fill="none" xmlns="http://www.w3.org/2000/svg">
<path d="M2.7028 3.64659C3.70436 4.19314 4.39472 4.59507 4.77389 4.85236L8 7.04151L11.2287 4.8506C11.6071 4.59521 12.2975 4.19374 13.2998 3.64618L12.5117 3.76743C11.5054 3.92225 10.4887 4 9.47054 4H6.52946C5.51131 4 4.49464 3.92225 3.48832 3.76743L2.7028 3.64659ZM14.1483 4.71986C13.5535 5.50119 13.0057 6.0618 12.5048 6.40169L9.123 8.69646C8.44501 9.15652 7.55499 9.15652 6.877 8.69646L3.49722 6.40304C2.99681 6.06347 2.44825 5.50191 1.85153 4.71836L1.93092 5.67098C1.97695 6.22342 2 6.77754 2 7.33189V12H14V7.33189C14 6.77754 14.023 6.22342 14.0691 5.67098L14.1483 4.71986ZM1.5 2H14.5C15.3284 2 16 2.67157 16 3.5V12.5C16 13.3284 15.3284 14 14.5 14H1.5C0.671573 14 0 13.3284 0 12.5V3.5C0 2.67157 0.671573 2 1.5 2Z" fill="white"/>
</svg>
