<svg width="16" height="16" viewBox="0 0 16 16" fill="none" xmlns="http://www.w3.org/2000/svg">
<path fill-rule="evenodd" clip-rule="evenodd" d="M13.7 0.902957L8.459 7.88996L6.769 5.86196C6.59926 5.65814 6.35551 5.5301 6.09136 5.506C5.82722 5.4819 5.56432 5.56372 5.3605 5.73346C5.15668 5.9032 5.02864 6.14695 5.00454 6.41109C4.98044 6.67524 5.06226 6.93814 5.232 7.14196L7.732 10.142C7.8286 10.2579 7.95019 10.3504 8.08764 10.4127C8.22509 10.4749 8.37484 10.5052 8.52568 10.5014C8.67652 10.4975 8.82453 10.4596 8.95863 10.3904C9.09273 10.3213 9.20943 10.2226 9.3 10.102L15.3 2.10196C15.4591 1.88978 15.5275 1.62309 15.4899 1.36054C15.4524 1.09798 15.3122 0.861087 15.1 0.701957C14.8878 0.542827 14.6211 0.4745 14.3586 0.512008C14.096 0.549515 13.8591 0.689784 13.7 0.901957V0.902957ZM14 8.00296C13.7348 8.00296 13.4804 8.10831 13.2929 8.29585C13.1054 8.48339 13 8.73774 13 9.00296V13.003H3V3.00296H7C7.26522 3.00296 7.51957 2.8976 7.70711 2.71006C7.89464 2.52253 8 2.26817 8 2.00296C8 1.73774 7.89464 1.48339 7.70711 1.29585C7.51957 1.10831 7.26522 1.00296 7 1.00296H2.5C2.10218 1.00296 1.72064 1.16099 1.43934 1.4423C1.15804 1.7236 1 2.10513 1 2.50296V13.503C1 13.9008 1.15804 14.2823 1.43934 14.5636C1.72064 14.8449 2.10218 15.003 2.5 15.003H13.5C13.8978 15.003 14.2794 14.8449 14.5607 14.5636C14.842 14.2823 15 13.9008 15 13.503V9.00296C15 8.73774 14.8946 8.48339 14.7071 8.29585C14.5196 8.10831 14.2652 8.00296 14 8.00296Z" fill="white"/>
</svg>
