<svg width="16" height="16" viewBox="0 0 16 16" fill="none" xmlns="http://www.w3.org/2000/svg">
<g clip-path="url(#clip0)">
<path d="M7.99945 16C7.25526 16 8.13563 14.8249 4.4668 12.9972C4.2658 12.8969 4.07075 12.7851 3.88261 12.6623C2.05713 11.4746 0.929688 9.30231 0.929688 6.96409C0.929688 3.11814 4.09471 0 7.99945 0C11.9042 0 15.0692 3.11814 15.0692 6.96334C15.0692 9.53971 13.6969 11.9174 11.538 12.9942C7.86549 14.8242 8.74363 16 7.99945 16ZM7.99945 9.75627C9.57042 9.75627 10.8273 8.51199 10.8273 6.99906C10.8273 5.48613 9.57042 4.24186 7.99945 4.24186C6.42847 4.24186 5.17154 5.48613 5.17154 6.99906C5.17154 8.51199 6.42847 9.75627 7.99945 9.75627Z" fill="white"/>
</g>
<defs>
<clipPath id="clip0">
<rect width="16" height="16" fill="white"/>
</clipPath>
</defs>
</svg>
