<svg width="16" height="16" viewBox="0 0 16 16" fill="none" xmlns="http://www.w3.org/2000/svg">
<g opacity="0.2">
<path fill-rule="evenodd" clip-rule="evenodd" d="M9.75 12.5C13.2018 12.5 16 9.70178 16 6.25C16 2.79822 13.2018 0 9.75 0C6.29822 0 3.5 2.79822 3.5 6.25C3.5 7.61497 3.93757 8.87775 4.68008 9.9057L0.792893 13.7929C0.402369 14.1834 0.402369 14.8166 0.792893 15.2071C1.18342 15.5976 1.81658 15.5976 2.20711 15.2071L6.0943 11.3199C7.12225 12.0624 8.38503 12.5 9.75 12.5ZM9.75 10.5C7.40279 10.5 5.5 8.59721 5.5 6.25C5.5 3.90279 7.40279 2 9.75 2C12.0972 2 14 3.90279 14 6.25C14 8.59721 12.0972 10.5 9.75 10.5Z" fill="white"/>
</g>
</svg>
