<svg width="16" height="16" viewBox="0 0 16 16" fill="none" xmlns="http://www.w3.org/2000/svg">
<path d="M11.9667 12.6751L12.5934 14.0637C12.6991 14.2979 12.6101 14.574 12.3877 14.7024L11.6126 15.1499C11.3901 15.2784 11.1065 15.2173 10.9566 15.0088L10.0624 13.7648C9.87633 13.479 9.58816 13.2582 9.23281 13.163C8.49085 12.9642 7.72882 13.3859 7.4977 14.11L6.95892 15.5351C6.86808 15.7753 6.60994 15.9077 6.36182 15.8412L5.49731 15.6096C5.24918 15.5431 5.09181 15.2994 5.13327 15.0459L5.38057 13.534C5.45112 13.2003 5.40347 12.8404 5.21953 12.5219C4.83546 11.8566 3.99843 11.616 3.32297 11.9646L1.93435 12.5913C1.70021 12.6969 1.4241 12.608 1.29567 12.3855L0.848159 11.6104C0.719722 11.388 0.78075 11.1044 0.989327 10.9544L2.23326 10.0602C2.51908 9.87418 2.73986 9.58601 2.83508 9.23066C3.03388 8.48871 2.61217 7.72667 1.88806 7.49555L0.463025 6.95678C0.222749 6.86593 0.0904019 6.6078 0.156886 6.35968L0.388532 5.49516C0.455017 5.24704 0.698699 5.08966 0.952206 5.13113L2.4641 5.37842C2.79776 5.44897 3.15764 5.40132 3.47624 5.21738C4.14145 4.83332 4.3821 3.99628 4.0335 3.32083L3.40682 1.93221C3.30116 1.69807 3.3901 1.42196 3.61256 1.29352L4.38767 0.846015C4.61013 0.717577 4.89372 0.778605 5.04366 0.987182L5.93786 2.23111C6.1239 2.51693 6.41207 2.73772 6.76742 2.83293C7.50938 3.03174 8.27141 2.61003 8.50254 1.88591L9.04131 0.460881C9.13216 0.220605 9.39029 0.0882572 9.63841 0.154741L10.5029 0.386388C10.751 0.452872 10.9084 0.696554 10.867 0.950061L10.6197 2.46195C10.5491 2.79561 10.5968 3.1555 10.7807 3.47409C11.1648 4.13931 12.0018 4.37995 12.6773 4.03136L14.0659 3.40468C14.3 3.29901 14.5761 3.38796 14.7046 3.61042L15.1521 4.38552C15.2805 4.60798 15.2195 4.89157 15.0109 5.04151L13.767 5.93571C13.4812 6.12176 13.2604 6.40993 13.1652 6.76528C12.9663 7.50723 13.3881 8.26927 14.1122 8.50039L15.5372 9.03917C15.7775 9.13001 15.9098 9.38814 15.8433 9.63627L15.6117 10.5008C15.5452 10.7489 15.3015 10.9063 15.048 10.8648L13.5361 10.6175C13.2025 10.547 12.8426 10.5946 12.524 10.7786C11.8588 11.1626 11.6181 11.9997 11.9667 12.6751ZM7.17189 11.0889C8.87899 11.5463 10.6337 10.5333 11.0911 8.82619C11.5485 7.1191 10.5354 5.36442 8.82834 4.90701C7.12125 4.44959 5.36657 5.46266 4.90915 7.16975C4.45174 8.87684 5.4648 10.6315 7.17189 11.0889Z" fill="white"/>
</svg>
