<svg width="46" height="46" viewBox="0 0 46 46" fill="none" xmlns="http://www.w3.org/2000/svg">
<circle cx="23" cy="23" r="23" fill="white"/>
<path fill-rule="evenodd" clip-rule="evenodd" d="M23 35C29.6274 35 35 29.6274 35 23C35 16.3726 29.6274 11 23 11C16.3726 11 11 16.3726 11 23C11 29.6274 16.3726 35 23 35ZM32.4378 21.2112C32.3767 21.2196 32.3156 21.2329 32.2547 21.2512C31.0801 21.6044 29.7887 21.8767 28.3807 22.0675C28.2369 18.6093 27.3071 15.7652 26.1809 13.8263C29.3806 14.9636 31.8053 17.7685 32.4378 21.2112ZM32.5784 23.6567C32.3181 27.6086 29.7249 30.914 26.1809 32.1737C27.2458 30.3404 28.1351 27.6976 28.3503 24.4916C29.8717 24.3016 31.281 24.0235 32.5784 23.6567ZM25.9899 22.3054C25.8411 17.1998 24.0846 13.4 23 13.4C21.9154 13.4 20.159 17.1996 20.0101 22.305C20.9621 22.3684 21.9589 22.4002 23.0004 22.4003C24.0416 22.4004 25.0382 22.3687 25.9899 22.3054ZM17.6496 24.4911C16.1283 24.3011 14.719 24.0231 13.4215 23.6564C13.6818 27.6084 16.275 30.914 19.8191 32.1737C18.7541 30.3403 17.8648 27.6973 17.6496 24.4911ZM17.6193 22.067C17.7632 18.609 18.693 15.7651 19.8191 13.8263C16.6194 14.9636 14.1948 17.7685 13.5622 21.2111C13.6234 21.2195 13.6847 21.2328 13.7457 21.2511C14.9202 21.604 16.2115 21.8763 17.6193 22.067ZM25.9382 24.7136C24.9961 24.7715 24.0168 24.8004 23.0002 24.8003C21.9835 24.8002 21.004 24.7713 20.0618 24.7133C20.3938 29.2975 21.9888 32.6 23 32.6C24.0111 32.6 25.6062 29.2976 25.9382 24.7136Z" fill="#6951FF"/>
</svg>
