<svg width="16" height="16" viewBox="0 0 16 16" fill="none" xmlns="http://www.w3.org/2000/svg">
<g clip-path="url(#clip0)">
<path d="M2.85938 0H13.7194V16H2.85938V0Z" fill="#FFCE01"/>
<path d="M2.00063 1.96813e-09H2.86062V16H2.00063C1.77426 16 1.55702 15.9108 1.39602 15.7517C1.23502 15.5925 1.14326 15.3763 1.14062 15.15V0.85C1.14326 0.623651 1.23502 0.407467 1.39602 0.248342C1.55702 0.0892176 1.77426 -1.53017e-05 2.00063 1.96813e-09V1.96813e-09ZM14.2906 14.86H13.7206V10.86H14.2806C14.3563 10.8587 14.4315 10.8724 14.5018 10.9005C14.5721 10.9285 14.6362 10.9703 14.6902 11.0234C14.7441 11.0764 14.787 11.1397 14.8163 11.2095C14.8456 11.2794 14.8606 11.3543 14.8606 11.43V14.28C14.8569 14.4301 14.7961 14.5732 14.6906 14.68C14.5813 14.7879 14.4342 14.8489 14.2806 14.85L14.2906 14.86ZM14.2906 10H13.7206V6H14.2806C14.6006 6 14.8606 6.26 14.8606 6.57V9.43C14.8606 9.5057 14.8456 9.58065 14.8163 9.65046C14.787 9.72028 14.7441 9.78357 14.6902 9.83663C14.6362 9.88969 14.5721 9.93147 14.5018 9.95952C14.4315 9.98757 14.3563 10.0013 14.2806 10H14.2906ZM14.2906 5.14H13.7206V1.14H14.2806C14.6006 1.14 14.8606 1.4 14.8606 1.72V4.57C14.8606 4.6457 14.8456 4.72065 14.8163 4.79046C14.787 4.86028 14.7441 4.92357 14.6902 4.97663C14.6362 5.02969 14.5721 5.07147 14.5018 5.09952C14.4315 5.12757 14.3563 5.14133 14.2806 5.14H14.2906Z" fill="#E0B300"/>
<path d="M8.00017 4C8.38547 4.00345 8.76518 4.0925 9.11185 4.26069C9.45851 4.42889 9.76346 4.67204 10.0046 4.97254C10.2458 5.27305 10.4172 5.6234 10.5063 5.99825C10.5955 6.37311 10.6002 6.76309 10.5202 7.14V7.17C10.2502 9 7.60017 12.2 7.60017 12.2C7.60017 12.2 7.52017 12.32 7.44017 12.3C7.35017 12.28 7.39017 12.17 7.39017 12.17L8.16017 9.27H8.00017C7.31234 9.26208 6.65568 8.98192 6.17399 8.49085C5.6923 7.99979 5.42483 7.33785 5.43017 6.65C5.42355 6.30689 5.48492 5.96586 5.61074 5.64658C5.73656 5.32731 5.92434 5.03609 6.16325 4.78974C6.40217 4.54339 6.68749 4.34677 7.00276 4.21123C7.31803 4.07569 7.65702 4.0039 8.00017 4V4ZM8.00017 7.71C8.30252 7.71 8.59248 7.58989 8.80627 7.3761C9.02006 7.16231 9.14017 6.87235 9.14017 6.57C9.14017 6.26765 9.02006 5.97769 8.80627 5.7639C8.59248 5.55011 8.30252 5.43 8.00017 5.43C7.6965 5.43 7.40526 5.55063 7.19053 5.76536C6.97581 5.98009 6.85517 6.27133 6.85517 6.575C6.85517 6.87867 6.97581 7.16991 7.19053 7.38464C7.40526 7.59937 7.6965 7.72 8.00017 7.72V7.71Z" fill="white"/>
</g>
<defs>
<clipPath id="clip0">
<rect width="16" height="16" fill="white"/>
</clipPath>
</defs>
</svg>
