<svg width="46" height="46" viewBox="0 0 46 46" fill="none" xmlns="http://www.w3.org/2000/svg">
<circle cx="23" cy="23" r="23" fill="white"/>
<path d="M14.7578 10.834H32.1718V36.49H14.7578V10.834Z" fill="#FFCE01"/>
<path d="M13.379 10.834H14.758V36.49H13.379C13.016 36.49 12.6677 36.3469 12.4095 36.0917C12.1514 35.8366 12.0042 35.4899 12 35.127V12.197C12.0042 11.834 12.1514 11.4874 12.4095 11.2322C12.6677 10.977 13.016 10.834 13.379 10.834V10.834ZM33.086 34.662H32.172V28.248H33.07C33.1913 28.2458 33.3119 28.2679 33.4247 28.3129C33.5374 28.3579 33.6401 28.4249 33.7267 28.5099C33.8132 28.595 33.882 28.6965 33.9289 28.8085C33.9759 28.9204 34 29.0406 34 29.162V33.7319C33.9941 33.9726 33.8966 34.202 33.7274 34.3733C33.5521 34.5463 33.3162 34.6441 33.07 34.6459L33.086 34.662ZM33.086 26.869H32.172V20.455H33.07C33.5831 20.455 34 20.8719 34 21.369V25.955C34 26.0764 33.9759 26.1965 33.9289 26.3085C33.882 26.4204 33.8132 26.5219 33.7267 26.607C33.6401 26.6921 33.5374 26.7591 33.4247 26.8041C33.3119 26.849 33.1913 26.8711 33.07 26.869H33.086ZM33.086 19.076H32.172V12.662H33.07C33.5831 12.662 34 13.0789 34 13.592V18.162C34 18.2834 33.9759 18.4035 33.9289 18.5155C33.882 18.6274 33.8132 18.7289 33.7267 18.814C33.6401 18.8991 33.5374 18.9661 33.4247 19.0111C33.3119 19.056 33.1913 19.0781 33.07 19.076H33.086Z" fill="#E0B300"/>
<path d="M22.9987 17.2461C23.6165 17.2516 24.2254 17.3944 24.7813 17.6641C25.3372 17.9338 25.8261 18.3237 26.2129 18.8056C26.5996 19.2874 26.8744 19.8492 27.0173 20.4503C27.1603 21.0514 27.1679 21.6767 27.0395 22.2811V22.3292C26.6066 25.2636 22.3573 30.3948 22.3573 30.3948C22.3573 30.3948 22.229 30.5872 22.1008 30.5551C21.9564 30.5231 22.0206 30.3467 22.0206 30.3467L23.2553 25.6965H22.9987C21.8958 25.6838 20.8428 25.2346 20.0704 24.4472C19.298 23.6598 18.8692 22.5983 18.8777 21.4954C18.8671 20.9452 18.9655 20.3984 19.1673 19.8864C19.369 19.3744 19.6701 18.9075 20.0532 18.5124C20.4363 18.1174 20.8938 17.8021 21.3994 17.5848C21.9049 17.3675 22.4485 17.2523 22.9987 17.2461V17.2461ZM22.9987 23.1951C23.4835 23.1951 23.9485 23.0025 24.2913 22.6597C24.6341 22.3169 24.8267 21.8519 24.8267 21.3671C24.8267 20.8823 24.6341 20.4173 24.2913 20.0745C23.9485 19.7317 23.4835 19.5391 22.9987 19.5391C22.5118 19.5391 22.0448 19.7325 21.7005 20.0769C21.3562 20.4212 21.1627 20.8882 21.1627 21.3751C21.1627 21.862 21.3562 22.329 21.7005 22.6734C22.0448 23.0177 22.5118 23.2111 22.9987 23.2111V23.1951Z" fill="white"/>
</svg>
