<svg width="16" height="16" viewBox="0 0 16 16" fill="none" xmlns="http://www.w3.org/2000/svg">
<path fill-rule="evenodd" clip-rule="evenodd" d="M3.79044 15.1622L7.98749 12.6096L12.1845 15.1622C12.3305 15.251 12.5056 15.2788 12.6719 15.2394C13.0213 15.1568 13.2375 14.8066 13.1548 14.4573L12.0241 9.67681L15.7488 6.474C15.8783 6.36259 15.9588 6.20463 15.9728 6.03432C16.0021 5.67654 15.7359 5.3627 15.3781 5.33333L10.4822 4.93152L8.58717 0.399416C8.52125 0.24176 8.3959 0.116406 8.23824 0.0504837C7.90704 -0.0880036 7.52629 0.0682187 7.3878 0.399416L5.49274 4.93152L0.596844 5.33333C0.426533 5.34731 0.268578 5.42779 0.157163 5.55736C-0.0768913 5.82956 -0.0459746 6.23995 0.226218 6.474L3.9509 9.67681L2.82013 14.4573C2.7808 14.6235 2.80853 14.7986 2.89733 14.9446C3.08387 15.2514 3.48373 15.3488 3.79044 15.1622ZM8.50713 10.9359C8.1879 10.7417 7.78707 10.7417 7.46784 10.9359L5.05251 12.4049L5.70325 9.65382C5.78926 9.29023 5.66539 8.90901 5.38209 8.66541L3.2386 6.82224L6.05611 6.591C6.42849 6.56044 6.75277 6.32484 6.89691 5.98013L7.98749 3.37197L9.07806 5.98013C9.2222 6.32484 9.54648 6.56044 9.91886 6.591L12.7364 6.82224L10.5929 8.66541C10.3096 8.90901 10.1857 9.29022 10.2717 9.65382L10.9225 12.4049L8.50713 10.9359Z" fill="white"/>
</svg>
