<svg width="32" height="32" viewBox="0 0 32 32" fill="none" xmlns="http://www.w3.org/2000/svg">
<path fill-rule="evenodd" clip-rule="evenodd" d="M0 16C0 24.8366 7.16344 32 16 32C24.8366 32 32 24.8366 32 16C32 7.16344 24.8366 0 16 0C7.16344 0 0 7.16344 0 16ZM17.1995 21.0268L15.1913 18.991L8.19156 26C7.64642 25.5482 7.25106 25.1994 7.00548 24.9538C6.75988 24.7082 6.42474 24.3262 6 23.808L13.0146 16.7843L11.0281 14.7706C10.4271 14.1612 10.4337 13.1799 11.0429 12.5787C11.2382 12.3861 11.481 12.2487 11.7467 12.1806L20.0658 10.0489C20.8948 9.83642 21.739 10.3364 21.9516 11.1656C22.0162 11.4179 22.0162 11.6825 21.9516 11.9348L19.8039 20.3228C19.5916 21.152 18.7474 21.6522 17.9183 21.4398C17.6456 21.37 17.3972 21.2272 17.1995 21.0268Z" fill="#51C15C"/>
</svg>
