<svg width="16" height="16" viewBox="0 0 16 16" fill="none" xmlns="http://www.w3.org/2000/svg">
<path fill-rule="evenodd" clip-rule="evenodd" d="M8.87109 0H14.9998C15.5521 0 15.9998 0.447715 15.9998 1V7.12868C15.9998 7.5265 15.8417 7.90804 15.5604 8.18934L8.56043 15.1893C7.97465 15.7751 7.0249 15.7751 6.43911 15.1893L0.810434 9.56066C0.224647 8.97487 0.224647 8.02513 0.810434 7.43934L7.81043 0.43934C8.09174 0.158035 8.47327 0 8.87109 0ZM2.5782 8.5L7.49977 13.4216L13.9998 6.92157V2H9.0782L2.5782 8.5ZM12.4998 5C12.4998 5.82843 11.8282 6.5 10.9998 6.5C10.1713 6.5 9.49977 5.82843 9.49977 5C9.49977 4.17157 10.1713 3.5 10.9998 3.5C11.8282 3.5 12.4998 4.17157 12.4998 5Z" fill="white"/>
</svg>
