<svg width="24" height="24" viewBox="0 0 24 24" fill="none" xmlns="http://www.w3.org/2000/svg">
<path d="M12.5001 12.9167C15.7854 12.9167 18.4584 10.2437 18.4584 6.95833C18.4584 3.673 15.7854 1 12.5001 1C9.21475 1 6.54175 3.67392 6.54175 6.95833C6.54175 10.2428 9.21475 12.9167 12.5001 12.9167ZM12.5001 4.66667C13.7642 4.66667 14.7917 5.69517 14.7917 6.95833C14.7917 8.2215 13.7642 9.25 12.5001 9.25C11.236 9.25 10.2084 8.22242 10.2084 6.95833C10.2084 5.69425 11.236 4.66667 12.5001 4.66667Z" fill="black"/>
<path d="M18.3366 15.7409C18.6555 15.5307 18.9173 15.2446 19.0986 14.9083C19.2798 14.5721 19.3749 14.1961 19.3752 13.8141C19.3752 13.1559 19.0268 12.5894 18.4438 12.297C18.1523 12.151 17.8257 12.0898 17.5011 12.1202C17.1765 12.1507 16.867 12.2716 16.6077 12.4693C14.2198 14.255 10.7805 14.255 8.39166 12.4693C8.13251 12.2718 7.82315 12.151 7.49874 12.1205C7.17433 12.09 6.84788 12.1512 6.55649 12.297C6.27351 12.4357 6.03574 12.6519 5.87086 12.9205C5.70598 13.1891 5.62078 13.499 5.62516 13.8141C5.62516 14.5887 6.01383 15.3092 6.66374 15.7409C7.49241 16.2918 8.39624 16.7227 9.35049 17.0224C9.51183 17.0719 9.67774 17.1178 9.84916 17.1608L7.07991 19.8714C6.90878 20.0408 6.77308 20.2426 6.6807 20.465C6.58832 20.6873 6.54111 20.9259 6.54183 21.1667C6.54183 21.6562 6.73249 22.1163 7.07899 22.4628C7.79308 23.1778 8.95724 23.1778 9.67683 22.4573L12.5002 19.535L15.329 22.4628C15.6865 22.8213 16.1558 23 16.6252 23C17.0945 23 17.5638 22.8213 17.9213 22.4638C18.2678 22.1173 18.4585 21.6571 18.4585 21.1667C18.4585 20.6763 18.2678 20.2161 17.9177 19.8668L15.1512 17.1599C15.3235 17.1168 15.4903 17.0701 15.6526 17.0206C16.6032 16.7229 17.5068 16.2921 18.3366 15.7409V15.7409Z" fill="black"/>
</svg>
