<svg width="19" height="19" viewBox="0 0 19 19" fill="none" xmlns="http://www.w3.org/2000/svg">
<g opacity="0.8">
<path d="M6.92443 12.0752C2.28404 7.43485 2.58151 3.85054 4.70283 2.25955C4.85749 2.14356 5.01 2.02989 5.16035 1.91853L5.16034 1.91851C5.65964 1.54871 6.36419 1.65369 6.73399 2.15299C6.74076 2.16214 6.7474 2.17139 6.75389 2.18074L7.93271 3.87773C8.26086 4.35012 8.17983 4.99397 7.74485 5.37031L6.67723 6.29405C6.31749 6.60531 6.1924 7.10919 6.36482 7.55255C6.70978 8.43956 7.42131 9.42212 8.49943 10.5002C9.57742 11.5782 10.5597 12.2896 11.4463 12.6343L11.4463 12.6342C11.8897 12.8066 12.3935 12.6815 12.7047 12.3218L13.6285 11.254C14.0049 10.819 14.6487 10.738 15.1211 11.0662L16.8202 12.2465C17.3305 12.6009 17.4568 13.3019 17.1023 13.8122C17.0961 13.8213 17.0896 13.8302 17.0831 13.8391C16.9715 13.99 16.8576 14.143 16.7413 14.298C15.1503 16.4194 11.5648 16.7156 6.92443 12.0752Z" fill="black"/>
</g>
</svg>
