<svg width="19" height="22" viewBox="0 0 19 22" fill="none" xmlns="http://www.w3.org/2000/svg">
<path d="M13.3621 15.6707C15.5523 14.5785 17 12.0965 17 9.3575C17 5.30089 13.6488 2 9.5 2C5.35115 2 2 5.30089 2 9.3575C2 11.8351 3.18338 14.1177 5.05974 15.3397C5.24878 15.4628 5.44392 15.5746 5.64459 15.6745C7.40079 16.5496 8.6439 17.4199 9.50113 18.327C10.3594 17.4191 11.6038 16.5475 13.3621 15.6707ZM9.5 21.5C8.5 21.5 9.68344 19.9214 4.75267 17.4647C4.48174 17.3297 4.22008 17.1796 3.96831 17.0156C1.51453 15.4176 0 12.4998 0 9.3575C0 4.1895 4.25329 0 9.5 0C14.7467 0 19 4.1895 19 9.3575C19 12.8192 17.1557 16.0138 14.2546 17.4605C9.3195 19.9215 10.5 21.5 9.5 21.5ZM9.5 13.8C11.8893 13.8 13.8 11.8599 13.8 9.5C13.8 7.14014 11.8893 5.2 9.5 5.2C7.11075 5.2 5.2 7.14014 5.2 9.5C5.2 11.8599 7.11075 13.8 9.5 13.8ZM9.5 11.8C8.22756 11.8 7.2 10.7676 7.2 9.5C7.2 8.23243 8.22756 7.2 9.5 7.2C10.7724 7.2 11.8 8.23243 11.8 9.5C11.8 10.7676 10.7724 11.8 9.5 11.8Z" fill="#1D1D1F"/>
</svg>
