<svg width="24" height="24" viewBox="0 0 24 24" fill="none" xmlns="http://www.w3.org/2000/svg">
<path d="M22 5.9506C21.2483 6.2767 20.4534 6.49226 19.64 6.5906C20.4982 6.07792 21.1413 5.27138 21.45 4.3206C20.6436 4.80066 19.7608 5.1389 18.84 5.3206C18.2245 4.65317 17.405 4.2089 16.5098 4.05745C15.6147 3.90601 14.6945 4.05596 13.8938 4.48379C13.093 4.91162 12.4569 5.59313 12.0852 6.42144C11.7135 7.24974 11.6273 8.17799 11.84 9.0606C10.2094 8.97813 8.61444 8.55355 7.15865 7.81446C5.70287 7.07537 4.41885 6.03829 3.39 4.7706C3.02914 5.40077 2.83952 6.11442 2.84 6.8406C2.83872 7.51498 3.00422 8.17922 3.32176 8.77416C3.63929 9.36911 4.09902 9.87631 4.66 10.2506C4.00798 10.2329 3.36989 10.0579 2.8 9.7406V9.7906C2.80489 10.7355 3.13599 11.6497 3.73731 12.3786C4.33864 13.1074 5.17326 13.6062 6.1 13.7906C5.74326 13.8992 5.37288 13.9564 5 13.9606C4.74189 13.9576 4.48442 13.9342 4.23 13.8906C4.49391 14.7034 5.00462 15.4137 5.69107 15.9228C6.37753 16.4318 7.20558 16.7142 8.06 16.7306C6.6172 17.8659 4.83588 18.4855 3 18.4906C2.66574 18.4917 2.33174 18.4717 2 18.4306C3.87443 19.6409 6.05881 20.2833 8.29 20.2806C9.82969 20.2966 11.3571 20.0056 12.7831 19.4247C14.2091 18.8437 15.505 17.9845 16.5952 16.8971C17.6854 15.8097 18.548 14.516 19.1326 13.0915C19.7172 11.667 20.012 10.1403 20 8.6006C20 8.4306 20 8.2506 20 8.0706C20.7847 7.48541 21.4615 6.76803 22 5.9506V5.9506Z" fill="black"/>
</svg>
