<svg width="24" height="24" viewBox="0 0 24 24" fill="none" xmlns="http://www.w3.org/2000/svg">
<g clip-path="url(#clip0)">
<path d="M19.2663 5.1464L18.9537 5.81451C18.9537 5.81451 17.4714 8.96276 15.6665 10.9461C15.0863 11.5878 14.7917 11.781 14.4713 11.781C14.2136 11.781 14.0945 11.5662 14.0945 10.9881V5H8.48262V5.45871C8.48262 6.12682 9.50804 6.27802 9.50804 8.08794V11.8221C9.50804 12.5742 9.46694 12.8652 9.11173 12.8652C8.16822 12.8652 5.92809 9.63207 4.67017 5.96091L4.35756 5H0.69151C0.293104 5 0 5.2712 0 5.66811C0 6.39862 0.859212 9.77727 4.23066 14.3058C6.49239 17.3518 9.46694 19 12.1469 19C13.7816 19 14.1782 18.7288 14.1782 18.0412V15.7042C14.1782 15.1194 14.4089 14.8692 14.7449 14.8692C15.1217 14.8692 15.7859 14.9892 17.3405 16.5178C17.3423 16.5178 19.8327 19 19.8327 19H23.3934C23.7078 19 24.0006 18.8548 24.0006 18.3331C24.0006 17.6434 23.1003 16.4131 21.7176 14.9529C21.153 14.202 20.2311 13.3875 19.938 13.0113C19.5201 12.5739 19.6449 12.324 19.938 11.865C19.938 11.865 23.1003 7.41983 23.4147 5.96061C23.5203 5.43921 23.2896 5.1461 22.7448 5.1461L19.2663 5.1464V5.1464Z" fill="black"/>
</g>
<defs>
<clipPath id="clip0">
<rect width="24" height="24" fill="white"/>
</clipPath>
</defs>
</svg>
