<svg width="24" height="24" viewBox="0 0 24 24" fill="none" xmlns="http://www.w3.org/2000/svg">
<path fill-rule="evenodd" clip-rule="evenodd" d="M12 22C17.523 22 22 17.523 22 12C22 6.477 17.523 2 12 2C6.477 2 2 6.477 2 12C2 17.523 6.477 22 12 22ZM19.865 10.509C19.8132 10.516 19.7621 10.5271 19.712 10.542C18.733 10.837 17.657 11.064 16.484 11.222C16.364 8.341 15.589 5.971 14.651 4.355C17.317 5.303 19.338 7.64 19.865 10.509ZM19.982 12.547C19.765 15.84 17.604 18.595 14.651 19.645C15.538 18.117 16.279 15.915 16.459 13.243C17.6492 13.1 18.8269 12.8673 19.982 12.547V12.547ZM14.492 11.421C14.367 7.166 12.904 4 12 4C11.096 4 9.633 7.166 9.508 11.42C10.302 11.473 11.132 11.5 12 11.5C12.868 11.5 13.698 11.474 14.492 11.42V11.421ZM7.542 13.242C6.35152 13.0993 5.1735 12.867 4.018 12.547C4.235 15.84 6.396 18.595 9.349 19.645C8.462 18.117 7.721 15.915 7.541 13.242H7.542ZM7.516 11.222C7.636 8.341 8.411 5.971 9.349 4.355C6.683 5.303 4.662 7.64 4.135 10.509C4.186 10.516 4.237 10.527 4.288 10.542C5.34455 10.8528 6.42386 11.0802 7.516 11.222V11.222ZM14.448 13.428C13.6329 13.4771 12.8165 13.5011 12 13.5C11.153 13.5 10.337 13.476 9.551 13.428C9.828 17.247 11.157 20 12 20C12.843 20 14.172 17.248 14.448 13.428V13.428Z" fill="black"/>
</svg>
