<svg width="118" height="24" viewBox="0 0 118 24" fill="none" xmlns="http://www.w3.org/2000/svg">
<path fill-rule="evenodd" clip-rule="evenodd" d="M11.9678 24C18.5775 24 23.9357 18.6274 23.9357 12C23.9357 5.37258 18.5775 0 11.9678 0C5.35818 0 0 5.37258 0 12C0 18.6274 5.35818 24 11.9678 24ZM10.6112 4.89205C11.1325 4.70048 11.6808 4.60013 12.2561 4.60013H15.1863V19.3694H13.3976V13.8047H11.8246L9.3798 19.3694H7.32147L10.0359 13.3486C9.43373 13.011 8.94836 12.5367 8.57085 11.9255C8.16637 11.2778 7.96863 10.3929 7.96863 9.28907C7.96863 8.52278 8.08548 7.82948 8.31019 7.24564C8.5349 6.6618 8.84949 6.16007 9.23598 5.77693C9.63147 5.38466 10.0899 5.08362 10.6112 4.89205ZM13.3886 12.2539V6.15095H12.2021C11.9145 6.15095 11.6269 6.20568 11.3482 6.31515C11.0696 6.42462 10.8269 6.59795 10.6112 6.83513C10.4045 7.07231 10.2247 7.40072 10.0899 7.79299C9.95505 8.19437 9.88315 8.69611 9.88315 9.28907C9.88315 9.85466 9.93708 10.3381 10.0629 10.7122C10.1798 11.0862 10.3505 11.3964 10.5573 11.6244C10.764 11.8525 11.0067 12.0167 11.2853 12.1079C11.564 12.2082 11.8696 12.2539 12.1931 12.2539H13.3886Z" fill="white"/>
<path d="M28.4482 19.3687H38.7505C43.2764 19.3687 44.7652 17.3241 44.7652 14.6443V14.426C44.7652 11.7462 43.3359 9.76117 38.7505 9.76117H32.5374V7.85555H43.6932V4.6001H28.4482V19.3687ZM32.5374 16.1133V13.0166H38.4329C39.8224 13.0166 40.5172 13.5923 40.5172 14.4657V14.6046C40.5172 15.4979 39.8224 16.1133 38.4329 16.1133H32.5374Z" fill="white"/>
<path d="M55.2633 12.699V19.3687H59.1341V8.3518H55.1641L49.8442 15.0215V8.3518H45.9734V19.3687H49.9434L55.2633 12.699Z" fill="white"/>
<path d="M73.331 16.2324V16.1133C73.331 14.3466 71.9017 13.8305 70.7901 13.6121C71.7032 13.4136 72.9737 12.7387 72.9737 11.0911V11.0117C72.9737 8.96716 70.8695 8.05405 67.1774 8.05405H66.8598C63.247 8.05405 60.5077 9.16567 60.5077 11.5279V11.5874H64.6564C64.7159 10.8331 65.5298 10.4559 66.9987 10.4559C68.3287 10.4559 68.9837 10.7735 68.9837 11.4484V11.508C68.9837 12.1432 68.4279 12.4807 67.5942 12.4807H64.974V14.8428H67.5942C68.7058 14.8428 69.3411 15.0414 69.3411 15.8552V15.9148C69.3411 16.7882 68.547 17.2249 67.098 17.2249C65.7482 17.2249 64.6365 16.7683 64.5571 15.5376H60.4084V15.6964C60.4084 17.9792 62.3935 19.6665 66.8995 19.6665H67.2568C71.4849 19.6665 73.331 18.4159 73.331 16.2324Z" fill="white"/>
<path d="M78.5077 19.3687V15.2994H83.907V19.3687H87.7778V8.3518H83.907V12.3616H78.5077V8.3518H74.6369V19.3687H78.5077Z" fill="white"/>
<path d="M103.007 15.9346H98.9777C98.8983 16.1331 98.6005 16.9867 96.3575 16.9867C93.9754 16.9867 93.2013 15.9545 93.0226 14.684H103.047V14.3267C103.047 11.2499 102.035 8.1136 96.3972 8.1136H95.5237C90.3031 8.1136 89.0724 11.2301 89.0724 13.7312V14.0091C89.0724 16.6492 90.4222 19.6268 95.8612 19.6268H96.5957C102.293 19.6268 103.007 16.8279 103.007 15.9346ZM96.02 10.6346C98.5013 10.6346 98.8784 11.7859 98.8983 12.5998H93.0623C93.3005 11.4484 93.9953 10.6346 96.02 10.6346Z" fill="white"/>
<path d="M117.568 15.0414H113.519C113.499 15.3193 113.182 16.7882 110.879 16.7882H110.68C108.437 16.7882 107.782 15.1605 107.782 13.7908V13.7709C107.782 12.4211 108.338 10.8728 110.601 10.8728H110.799C113.082 10.8728 113.479 12.2425 113.519 12.5601H117.568V12.5402C117.568 10.972 116.536 8.05405 111.196 8.05405H110.283C104.745 8.05405 103.772 11.647 103.772 13.7312V14.0091C103.772 16.0934 104.785 19.6665 110.303 19.6665H111.276C116.576 19.6665 117.568 16.7088 117.568 15.0414Z" fill="white"/>
</svg>
